<?xml version="1.0" standalone="no"?>
<!DOCTYPE svg PUBLIC "-//W3C//DTD SVG 20010904//EN"
 "http://www.w3.org/TR/2001/REC-SVG-20010904/DTD/svg10.dtd">
<svg version="1.0" xmlns="http://www.w3.org/2000/svg"
 width="720.000000pt" height="1280.000000pt" viewBox="0 0 720.000000 1280.000000"
 preserveAspectRatio="xMidYMid meet">
<metadata>
Created by potrace 1.16, written by Peter Selinger 2001-2019
</metadata>
<g transform="translate(0.000000,1280.000000) scale(0.100000,-0.100000)"
fill="#000000" stroke="none">
<path d="M0 10283 l1 -2518 62 65 c34 36 74 73 89 83 47 30 55 80 31 210 -18
95 -20 137 -16 280 5 140 3 174 -11 210 -25 65 -33 163 -22 256 8 65 7 89 -4
114 -8 18 -16 74 -18 126 l-3 93 38 55 c21 31 52 78 69 106 17 28 40 58 51 66
10 9 38 42 63 74 24 32 75 84 114 116 l71 57 65 197 c36 108 75 207 86 219 11
13 33 49 48 80 15 32 42 71 59 88 129 123 144 134 302 211 176 87 191 97 220
152 18 34 104 127 175 188 32 27 196 110 235 119 27 5 30 10 27 38 l-3 32 148
0 148 1 45 39 c53 48 133 80 199 80 62 0 143 -24 166 -50 18 -20 17 -21 -31
-74 -47 -52 -78 -68 -86 -45 -2 6 -25 11 -52 12 -43 2 -51 -1 -76 -32 -38 -44
-46 -93 -24 -131 18 -30 40 -45 47 -32 3 4 10 24 16 44 22 68 89 96 156 66 24
-11 29 -8 62 25 33 33 37 41 40 103 6 101 9 104 103 104 44 0 80 -3 80 -7 -1
-5 -7 -37 -15 -73 -20 -91 -20 -90 24 -90 33 0 40 4 43 23 2 14 11 23 25 25
22 3 38 36 45 92 3 24 6 25 86 28 45 2 82 0 82 -3 0 -10 -70 -410 -78 -445 -8
-35 -9 -35 -65 -38 -42 -2 -57 -7 -57 -17 0 -8 7 -15 15 -15 8 0 15 -9 15 -20
0 -18 7 -20 74 -20 66 0 74 2 79 21 7 26 44 22 39 -4 -3 -15 7 -17 81 -17 l85
0 16 35 c16 34 19 35 71 35 l53 0 -11 35 -10 35 -74 0 c-74 0 -74 0 -94 -35
-20 -34 -23 -35 -79 -35 -37 0 -60 -5 -63 -12 -3 -8 -6 -6 -6 5 -1 12 -9 17
-28 17 l-26 0 19 23 c42 46 56 82 70 171 8 50 19 108 25 129 9 34 13 37 44 37
26 0 44 9 73 38 47 44 62 89 62 191 l0 74 113 -6 c61 -4 202 -16 312 -27 110
-12 210 -18 223 -15 13 3 35 19 49 36 58 68 239 123 393 120 153 -3 326 -39
425 -89 17 -8 48 -30 71 -48 44 -37 111 -64 153 -64 41 1 92 23 175 76 42 27
85 54 94 59 10 6 31 19 47 31 40 28 131 66 180 75 22 4 76 15 120 23 184 36
413 37 535 1 30 -9 69 -20 85 -24 114 -29 237 -108 410 -264 49 -44 110 -69
195 -77 70 -8 90 -7 115 7 77 40 126 63 136 63 6 0 23 8 37 19 15 10 53 24 85
31 l57 13 0 784 0 783 -3600 0 -3600 0 0 -2517z m1488 1540 c121 -7 130 -11
118 -58 -6 -23 -11 -25 -60 -25 l-53 0 -7 -46 c-3 -26 -6 -143 -6 -260 0 -193
-2 -214 -17 -222 -10 -5 -29 -6 -43 -2 l-25 6 1 261 1 261 -59 7 c-58 7 -58 7
-58 40 0 48 9 50 208 38z m406 -16 c21 -7 48 -24 59 -39 18 -24 19 -41 18
-254 -2 -256 -7 -275 -69 -301 -47 -19 -160 -13 -197 11 -43 28 -47 56 -46
286 2 184 5 219 19 245 34 58 123 80 216 52z m433 -17 c50 -30 56 -51 54 -177
-1 -43 -6 -59 -29 -84 l-28 -31 28 -28 c27 -28 28 -32 30 -139 1 -61 2 -119 2
-128 1 -22 -43 -29 -74 -13 -18 10 -20 20 -20 130 0 137 -2 140 -89 140 l-50
0 -3 -132 -3 -133 -35 -3 c-21 -2 -38 2 -45 11 -9 13 0 562 10 595 3 8 35 12
112 12 89 0 114 -3 140 -20z m411 4 c8 -2 12 -16 10 -36 -3 -32 -4 -33 -58
-38 l-55 -5 -3 -266 -2 -267 -33 -5 c-61 -9 -70 5 -63 91 3 43 7 160 8 262 l1
185 -34 3 c-71 5 -79 10 -79 46 0 19 5 36 12 38 15 5 278 -2 296 -8z m250 -7
c6 -7 23 -105 37 -217 15 -113 35 -245 46 -295 10 -49 15 -93 10 -98 -4 -4
-30 -7 -57 -5 l-49 3 -9 83 -8 83 -52 -3 -51 -3 -6 -72 c-4 -39 -10 -76 -13
-82 -9 -13 -75 -14 -95 -2 -12 8 -12 18 2 73 9 34 33 155 52 267 19 112 40
222 45 243 l11 38 63 0 c40 0 68 -5 74 -13z"/>
<path d="M1784 11731 c-12 -5 -24 -16 -27 -24 -8 -22 -10 -379 -2 -399 14 -34
109 -34 119 0 10 36 11 401 1 411 -15 15 -67 22 -91 12z"/>
<path d="M2156 11678 c-3 -29 -6 -70 -6 -90 0 -34 3 -38 33 -42 17 -3 48 -2
67 2 38 9 47 27 49 100 1 59 -24 82 -88 82 l-48 0 -7 -52z"/>
<path d="M2907 11690 c-7 -18 -37 -222 -37 -250 0 -16 7 -20 38 -20 21 0 41 2
43 5 7 6 -20 236 -30 260 -7 16 -10 17 -14 5z"/>
<path d="M3380 11046 c0 -5 14 -93 31 -195 18 -102 32 -195 33 -206 1 -18 -6
-20 -61 -23 -45 -2 -63 -7 -63 -16 0 -8 7 -16 15 -20 8 -3 15 -12 15 -21 0
-12 15 -15 80 -15 44 0 80 4 80 10 0 23 -24 118 -36 141 -8 16 -9 30 -4 35 6
6 4 35 -4 74 -8 36 -19 98 -26 138 -8 48 -16 72 -25 72 -8 0 -19 8 -24 18 -6
9 -11 13 -11 8z"/>
<path d="M3865 11038 c-2 -7 -13 -69 -24 -138 -12 -69 -25 -140 -30 -159 -14
-47 -54 -95 -94 -115 -42 -19 -147 -22 -167 -3 -10 9 -10 5 2 -13 8 -14 30
-36 49 -48 29 -21 44 -23 106 -20 63 3 76 7 112 36 22 17 43 32 48 32 4 0 1
-5 -7 -10 -12 -8 -10 -10 8 -10 19 0 22 -4 17 -20 -6 -19 -2 -20 77 -20 l83 0
19 35 c18 33 22 35 68 35 50 0 53 4 42 48 -6 20 -12 22 -81 22 -74 0 -74 0
-94 -35 -20 -33 -24 -35 -72 -35 -29 0 -68 3 -89 6 l-36 6 44 65 c24 35 46 74
49 86 2 12 11 60 20 107 9 47 18 95 20 106 4 17 -1 23 -20 28 -14 4 -23 11
-20 16 3 6 -1 10 -10 10 -8 0 -18 -6 -20 -12z"/>
<path d="M4281 11040 c-1 -13 15 -104 55 -340 14 -77 15 -75 -53 -78 -45 -2
-63 -7 -63 -16 0 -8 7 -16 15 -20 8 -3 15 -12 15 -21 0 -12 15 -15 81 -15 l82
0 -7 32 c-3 18 -15 91 -26 163 -27 175 -51 275 -66 275 -7 0 -18 8 -23 18 -8
13 -10 14 -10 2z"/>
<path d="M2600 10718 c-7 -46 -18 -86 -24 -90 -13 -9 -102 -10 -133 -2 -12 3
-19 12 -17 18 3 7 -4 24 -15 37 -17 21 -19 22 -18 5 1 -14 -12 -28 -43 -45
-39 -22 -58 -25 -135 -26 -49 0 -101 4 -115 9 -23 8 -23 6 8 -27 20 -21 52
-40 77 -47 64 -18 170 -9 227 19 52 25 84 24 82 -2 -2 -15 9 -17 76 -17 l77 0
12 73 c18 103 19 105 49 109 22 2 28 9 30 36 l3 32 -64 0 -65 0 -12 -82z"/>
<path d="M6620 7792 c-87 -43 -120 -72 -120 -104 0 -26 2 -27 27 -17 15 6 30
14 33 19 4 6 31 5 69 -1 53 -10 69 -18 109 -56 26 -25 71 -57 100 -70 31 -15
58 -35 64 -49 19 -40 28 -27 26 39 -1 57 -26 126 -46 127 -4 1 -32 23 -62 51
-42 38 -60 49 -77 44 -17 -4 -27 1 -39 20 -20 30 -16 30 -84 -3z"/>
<path d="M430 7151 c0 -16 11 -49 25 -72 14 -24 25 -53 25 -64 1 -21 22 -55
34 -55 4 0 14 -7 23 -16 22 -21 57 -14 61 13 3 22 27 37 44 27 5 -3 13 -17 18
-30 6 -16 17 -24 33 -24 13 0 27 -3 31 -7 3 -4 13 -8 21 -9 30 -5 15 44 -30
94 -53 59 -120 100 -179 108 -27 4 -50 17 -68 35 -34 36 -38 36 -38 0z"/>
<path d="M1536 6541 c-4 -5 2 -14 11 -20 17 -10 16 -11 -4 -17 -23 -6 -33 -44
-12 -44 5 0 8 4 4 9 -13 21 36 22 65 1 35 -25 30 -44 -11 -38 -33 5 -33 4 -19
-23 6 -10 21 -19 34 -19 17 0 26 -7 30 -25 6 -25 58 -65 84 -65 20 0 14 31
-14 67 -19 25 -23 38 -16 45 8 8 20 2 41 -21 24 -26 37 -32 63 -29 26 2 33 -1
36 -17 2 -11 10 -24 18 -28 9 -5 14 -25 14 -52 l0 -44 90 -60 c85 -57 94 -61
144 -58 39 1 57 -2 70 -15 15 -16 15 -18 2 -18 -23 0 -20 -17 5 -31 27 -14 48
3 31 24 -15 18 -3 30 15 15 8 -7 29 -11 47 -10 22 2 39 -4 51 -18 10 -11 24
-20 32 -20 38 0 -13 50 -72 69 -80 27 -214 117 -310 209 -44 42 -133 96 -184
111 -53 15 -84 33 -131 76 -19 18 -44 35 -55 38 -11 2 -27 8 -36 12 -10 3 -20
2 -23 -4z"/>
<path d="M695 6450 c-15 -16 -17 -28 -10 -72 4 -29 7 -88 6 -131 -3 -87 13
-128 70 -192 35 -38 51 -66 69 -119 6 -20 27 -52 46 -71 19 -19 34 -41 34 -49
0 -7 15 -29 33 -48 17 -19 44 -49 59 -65 l26 -31 -24 -21 c-30 -26 -30 -34 2
-77 21 -27 24 -37 15 -48 -9 -11 -9 -16 0 -22 7 -4 15 -2 17 4 2 7 12 12 23
12 10 0 19 4 19 8 0 5 12 14 26 20 19 9 24 17 19 32 -5 16 -2 20 19 20 18 0
26 -5 26 -17 1 -22 34 -61 81 -96 35 -27 37 -27 79 -12 44 16 135 12 146 -6 3
-5 23 -9 45 -9 34 0 41 -4 51 -27 16 -37 48 -73 65 -73 28 0 73 31 88 60 14
27 14 32 -1 55 -9 14 -19 25 -23 25 -11 0 -63 51 -104 102 -20 26 -46 49 -56
53 -10 3 -25 20 -32 38 -14 37 -57 87 -75 87 -6 0 -22 13 -35 30 -13 16 -29
30 -35 30 -6 0 -28 14 -49 30 -32 25 -47 30 -94 30 -52 0 -60 3 -91 35 -19 19
-40 35 -48 35 -8 0 -33 19 -56 43 -23 23 -53 51 -67 62 -96 81 -139 126 -171
179 -34 54 -38 68 -38 127 0 84 -19 108 -55 69z"/>
<path d="M2376 6041 c-4 -5 -3 -16 0 -25 5 -12 -4 -15 -56 -15 -34 0 -64 -2
-67 -5 -9 -8 47 -27 100 -33 26 -3 47 -10 47 -14 0 -5 9 -9 20 -9 11 0 19 6
18 13 -4 17 59 13 80 -7 11 -9 29 -13 48 -10 20 3 35 -1 44 -11 14 -17 35 -21
25 -5 -3 6 -2 10 4 10 14 0 19 -20 14 -55 -2 -16 0 -35 4 -41 13 -17 185 -54
205 -43 30 16 43 10 63 -33 25 -52 59 -63 69 -24 4 18 13 26 29 26 13 0 17 -3
10 -8 -6 -4 -14 -19 -18 -34 -5 -20 -2 -29 12 -36 22 -12 45 -1 41 18 -2 8 6
16 16 18 16 3 18 0 12 -29 -6 -30 -5 -31 11 -17 10 9 28 19 41 22 27 9 28 22
2 36 -25 13 -15 40 13 37 16 -1 23 4 25 20 2 12 9 20 15 18 7 -3 21 2 31 10
19 14 18 16 -22 57 -23 23 -42 46 -42 50 0 4 -17 8 -38 8 -28 0 -45 -7 -62
-25 -19 -20 -33 -25 -69 -24 -25 0 -40 3 -33 6 18 7 15 23 -10 45 -18 16 -33
18 -101 13 -68 -4 -91 -1 -156 21 -42 14 -116 30 -166 35 -72 7 -93 13 -104
29 -14 21 -46 27 -55 11z"/>
<path d="M3241 5796 c-17 -32 -10 -69 14 -76 11 -3 20 -11 20 -19 0 -8 5 -16
11 -18 7 -2 10 5 7 20 -3 14 0 28 6 31 6 4 11 0 11 -9 0 -11 6 -15 18 -11 10
4 27 -1 38 -9 10 -8 14 -15 9 -15 -6 0 -11 -9 -12 -21 -2 -17 2 -19 27 -14 38
8 57 -21 34 -53 -18 -27 -13 -38 23 -47 21 -5 31 -1 44 17 20 26 7 57 -16 38
-9 -8 -15 -8 -20 0 -13 22 24 20 72 -3 46 -22 53 -23 78 -9 33 17 49 2 39 -38
-14 -54 -13 -55 61 -61 39 -3 84 -12 100 -18 51 -21 253 -42 294 -31 20 5 47
11 60 12 69 8 5 40 -104 53 -87 10 -149 27 -170 46 -12 11 -38 19 -65 20 -59
3 -157 50 -244 119 -64 50 -73 54 -118 52 -38 -2 -63 5 -118 33 -38 19 -73 35
-78 35 -5 0 -14 -11 -21 -24z"/>
<path d="M6313 5748 c5 -16 -10 -48 -23 -48 -4 0 -22 -12 -37 -27 -64 -61
-127 -103 -162 -108 -20 -3 -72 -13 -116 -21 -89 -16 -238 -14 -450 6 -125 12
-385 3 -402 -14 -3 -3 2 -17 11 -31 15 -22 23 -25 84 -26 37 -1 74 -2 82 -3
24 -2 23 -33 -1 -67 -20 -28 -26 -31 -60 -26 -35 5 -37 3 -27 -13 9 -14 9 -22
-2 -35 -23 -27 1 -38 46 -19 47 20 199 34 234 22 14 -5 34 -23 46 -41 19 -30
49 -38 64 -19 11 14 97 12 137 -3 42 -16 44 -16 72 7 31 24 38 38 21 38 -16 0
-12 18 10 40 11 11 20 27 20 37 0 14 2 14 20 -2 15 -14 29 -16 64 -12 39 6 47
3 63 -16 21 -26 95 -51 123 -42 27 9 34 -13 21 -62 -10 -37 -14 -41 -64 -53
-49 -11 -53 -14 -50 -39 2 -14 -3 -34 -11 -45 -14 -17 -16 -17 -31 -2 -22 22
-51 20 -77 -4 -17 -16 -19 -22 -9 -34 10 -12 7 -15 -21 -18 -18 -2 -53 3 -77
11 -58 18 -141 9 -214 -23 -32 -14 -71 -26 -87 -26 -17 0 -30 -4 -30 -8 0 -20
43 -52 77 -57 62 -11 103 -26 103 -38 0 -36 184 -97 290 -97 88 0 161 18 167
41 4 14 11 18 24 14 12 -4 19 -1 19 7 0 25 193 127 242 128 25 0 68 21 109 52
31 24 87 43 154 52 11 2 28 7 38 11 10 4 31 5 47 2 20 -4 34 -1 45 9 33 33
107 65 136 59 16 -4 29 -10 29 -14 0 -4 20 -17 44 -29 48 -23 96 -21 130 3 24
18 14 45 -18 45 -33 0 -69 31 -57 49 8 12 14 13 36 3 14 -7 37 -12 50 -12 13
0 27 -4 30 -10 18 -30 25 1 25 114 l0 123 -47 -4 c-50 -5 -57 -1 -115 67 -22
25 -22 30 -3 30 8 0 15 7 15 15 0 18 -36 20 -43 3 -3 -10 -9 -10 -25 -1 -11 6
-29 9 -39 7 -14 -4 -27 3 -42 22 -45 57 -173 88 -261 64 -25 -7 -66 -14 -92
-16 -50 -3 -88 -18 -88 -36 0 -7 -5 -6 -15 2 -10 9 -15 9 -15 1 0 -6 -5 -11
-11 -11 -16 0 -40 -28 -30 -34 5 -4 21 -1 35 6 24 10 29 8 61 -26 27 -30 37
-35 52 -28 23 13 68 -20 59 -43 -7 -19 -54 -38 -78 -32 -10 3 -18 0 -18 -6 0
-7 -19 -21 -41 -32 l-41 -19 -40 23 c-38 21 -41 22 -59 5 -22 -20 -25 -40 -6
-47 6 -2 9 -7 5 -11 -7 -9 -40 10 -81 46 -19 17 -32 40 -37 67 -9 48 -4 53 59
61 25 3 47 11 51 20 4 8 12 25 18 37 7 12 9 30 5 39 -5 14 -1 15 26 9 43 -9
49 13 17 64 -17 26 -34 41 -47 41 -12 0 -19 -5 -16 -12z m421 -163 c3 -10 19
-15 43 -15 41 0 83 -23 83 -45 0 -7 -14 -24 -31 -38 -27 -21 -29 -25 -14 -37
13 -11 20 -11 40 0 20 11 26 10 40 -4 16 -16 14 -53 -3 -43 -4 3 -22 -1 -40
-8 -26 -12 -32 -20 -32 -45 0 -25 4 -30 25 -30 39 0 44 -29 9 -57 -16 -12 -36
-23 -45 -23 -32 0 -98 90 -91 125 1 6 -16 29 -38 50 -22 21 -40 47 -40 56 0
10 -4 21 -10 24 -19 12 -10 33 25 54 19 11 35 27 35 36 0 19 36 20 44 0z"/>
<path d="M4720 5568 c-25 -5 -109 -10 -187 -12 -78 -2 -156 -7 -173 -11 -34
-8 -32 -25 3 -19 20 4 19 3 -3 -7 -47 -21 -54 -25 -58 -37 -4 -12 29 -21 158
-45 92 -16 140 -34 180 -67 23 -19 130 -39 130 -25 0 3 -5 16 -11 27 -16 30
16 96 55 112 25 10 43 9 106 -6 93 -22 82 -23 114 8 36 37 34 62 -6 68 -141
22 -243 26 -308 14z"/>
<path d="M2466 5141 c-17 -7 -12 -13 37 -50 31 -23 57 -46 57 -51 0 -6 14 -10
30 -10 20 0 33 -6 38 -17 4 -10 18 -19 32 -21 14 -1 34 -14 46 -27 12 -14 26
-25 33 -25 6 0 11 -6 11 -13 0 -17 52 -67 70 -67 7 0 21 -7 30 -15 11 -10 41
-16 92 -17 72 -1 77 -3 100 -32 34 -44 37 -56 27 -111 -7 -38 -6 -52 5 -63 12
-12 18 -12 45 4 24 14 30 23 25 39 -4 11 -10 22 -14 25 -10 7 -30 46 -30 59 0
5 9 12 19 16 10 3 21 15 24 25 7 26 33 26 40 0 8 -31 43 -24 93 16 40 33 49
35 45 12 0 -5 5 -8 12 -8 6 0 23 -12 36 -26 18 -18 31 -24 48 -19 26 6 30 -6
9 -25 -8 -6 -16 -21 -18 -33 -3 -19 -8 -22 -48 -19 -57 3 -75 -8 -66 -42 4
-17 13 -26 26 -26 13 0 20 -7 20 -20 0 -22 8 -24 43 -11 16 6 26 20 30 40 5
23 17 36 47 51 43 22 42 22 54 -32 4 -19 13 -28 27 -28 30 0 37 -31 11 -48
-22 -15 -31 -65 -13 -76 11 -7 2 -46 -10 -46 -5 0 -9 4 -9 8 0 5 -11 15 -25
22 -21 11 -28 10 -50 -4 -42 -27 -20 -69 53 -102 17 -8 32 -19 32 -24 0 -14
37 -13 46 1 4 8 9 7 14 -2 12 -18 50 -22 50 -5 0 28 29 46 56 36 28 -11 69 4
59 20 -7 11 23 80 34 80 4 0 18 -11 31 -25 27 -28 52 -32 70 -10 10 13 10 19
-4 33 -20 23 -20 32 -1 32 8 0 19 -8 24 -18 12 -22 104 -30 95 -8 -3 7 3 16
13 20 17 7 30 -4 53 -44 7 -12 11 -12 24 -1 20 17 46 -1 46 -30 0 -22 -4 -23
-33 -7 -12 6 -34 13 -49 15 -25 2 -26 0 -25 -32 1 -21 7 -35 15 -35 7 0 12 7
10 16 -2 10 3 19 10 21 8 3 12 -5 12 -24 0 -31 16 -53 38 -53 8 0 22 -8 31
-19 24 -28 107 -23 130 8 10 12 36 26 59 32 36 8 45 6 62 -11 11 -11 25 -20
30 -20 6 0 10 -7 10 -15 0 -11 -7 -14 -25 -9 -19 5 -25 2 -25 -10 0 -9 4 -16
9 -16 5 0 23 -13 39 -30 31 -31 52 -38 52 -19 0 14 -18 95 -32 141 -9 31 -8
42 6 63 l17 26 25 -26 c28 -30 30 -41 9 -49 -19 -7 -20 -35 -1 -42 10 -4 13
-16 10 -40 -3 -27 -1 -34 13 -35 45 -3 73 -17 73 -36 0 -25 33 -10 55 24 13
21 35 38 65 49 25 8 52 19 60 23 24 11 50 1 50 -20 0 -23 32 -26 50 -4 11 13
15 12 31 -9 11 -13 17 -30 14 -38 -3 -7 2 -23 11 -34 24 -29 59 -11 70 35 7
28 15 36 43 44 42 11 61 3 61 -24 0 -20 45 -69 62 -69 4 0 5 15 1 33 l-6 32
46 -44 c26 -25 49 -42 53 -39 3 4 13 21 22 40 12 23 23 32 37 31 11 -1 43 -4
70 -7 46 -4 50 -6 55 -33 5 -27 8 -28 53 -26 30 2 46 -1 42 -7 -3 -6 -24 -10
-45 -10 -32 0 -38 -3 -33 -16 3 -9 0 -20 -8 -25 -12 -7 -11 -11 3 -25 12 -12
21 -14 30 -7 7 6 25 13 41 17 22 5 27 12 27 37 0 41 58 100 97 97 15 -1 34 -6
41 -11 8 -6 17 -5 26 2 7 6 20 9 29 5 8 -3 43 2 77 12 l62 17 -5 53 c-8 82 13
105 175 185 60 29 108 59 108 65 0 16 -24 21 -160 34 -149 15 -246 45 -257 80
-13 40 -27 58 -67 83 -62 39 -179 77 -259 84 -59 5 -70 3 -90 -15 -31 -28 -89
-42 -178 -42 -61 0 -79 4 -93 18 -14 16 -38 20 -164 26 l-148 6 -97 -34 -98
-35 -53 19 c-78 26 -112 46 -134 78 -17 23 -32 30 -97 41 -42 8 -86 21 -98 30
-37 28 -71 39 -143 46 -38 4 -76 11 -85 16 -33 17 -42 -5 -37 -86 5 -81 -13
-169 -28 -132 -6 16 -14 18 -53 12 -40 -5 -50 -2 -75 20 -34 29 -35 29 -60 10
-22 -17 -66 -20 -66 -6 0 5 19 25 42 44 39 32 41 37 30 61 -13 29 -85 54 -106
37 -6 -5 -50 -9 -96 -9 -47 0 -98 -5 -113 -11 -19 -7 -34 -8 -47 -1 -10 5 -36
10 -57 10 -22 0 -78 16 -126 35 -48 19 -97 35 -109 35 -13 0 -59 18 -103 40
-76 38 -84 40 -175 40 -68 0 -102 4 -117 15 -14 9 -42 14 -80 13 -32 -1 -67 1
-78 5 -11 3 -29 2 -39 -2z m1191 -517 c-3 -16 0 -28 9 -31 15 -5 20 -33 6 -33
-4 0 -8 -9 -8 -20 0 -11 4 -20 8 -20 4 0 8 5 8 12 0 6 6 4 13 -6 11 -15 17
-16 35 -7 30 16 39 14 16 -4 -10 -8 -36 -19 -56 -25 -29 -8 -40 -18 -49 -45
-15 -41 -36 -45 -49 -9 -13 33 -14 30 20 44 17 7 30 18 30 26 0 7 -13 29 -30
47 -36 41 -39 74 -7 87 43 17 60 12 54 -16z"/>
<path d="M6540 4351 c-8 -5 -71 -14 -140 -20 -69 -7 -129 -17 -134 -22 -6 -5
-25 -9 -43 -9 -20 0 -36 -6 -39 -14 -14 -37 -79 -42 -241 -20 -38 5 -42 4 -45
-18 -2 -15 -10 -23 -23 -23 -13 0 -26 -13 -38 -38 -14 -31 -20 -36 -36 -28 -9
6 -23 17 -31 25 -7 10 -28 16 -51 16 -21 0 -50 5 -64 12 -33 15 -44 3 -38 -45
l5 -38 56 3 c54 3 55 2 66 -29 6 -17 15 -35 20 -40 5 -5 7 -1 3 10 -12 32 23
16 42 -20 6 -13 18 -23 26 -23 8 0 18 -6 22 -14 4 -7 19 -19 32 -26 32 -16 47
5 26 37 -23 35 -18 51 25 73 48 25 50 25 50 1 0 -13 9 -21 33 -25 23 -4 36
-14 45 -36 12 -27 41 -42 43 -22 0 4 3 16 5 27 3 11 6 26 6 33 1 14 17 16 36
4 18 -12 50 -75 45 -89 -3 -7 -2 -13 2 -13 12 0 32 25 28 36 -2 7 12 10 43 6
48 -4 124 14 124 30 0 5 4 7 9 3 6 -3 4 -17 -4 -32 -8 -15 -13 -29 -11 -31 2
-2 21 1 41 7 39 11 64 35 65 64 0 20 22 22 86 6 51 -13 59 -37 19 -63 -32 -21
-33 -46 0 -46 22 0 58 39 38 41 -4 0 10 7 31 15 35 12 42 12 54 0 13 -12 11
-18 -11 -40 -14 -14 -35 -26 -47 -26 -23 0 -26 -18 -6 -46 8 -11 11 -23 6 -29
-6 -7 4 -14 26 -21 32 -10 35 -10 49 19 8 17 15 38 15 48 0 10 13 33 29 51
l30 33 31 -18 c29 -18 33 -18 49 -3 10 9 22 16 27 15 50 -9 43 20 -22 88 -31
32 -79 85 -106 118 -54 64 -91 92 -177 131 -59 27 -60 27 -81 15z"/>
<path d="M398 4223 c-10 -2 -21 -17 -24 -31 -3 -15 -7 -33 -9 -39 -7 -23 98
-250 163 -352 61 -97 248 -290 307 -317 55 -26 145 -33 145 -11 0 6 -46 59
-102 117 -88 92 -107 117 -149 206 -32 68 -67 122 -109 170 -81 92 -77 86
-113 157 -28 54 -72 108 -87 106 -3 -1 -13 -3 -22 -6z"/>
<path d="M916 4103 l-48 -4 5 -36 c4 -20 10 -39 15 -42 4 -3 18 -23 31 -43 12
-21 26 -38 30 -38 4 0 23 -14 41 -30 19 -17 51 -36 72 -42 21 -6 38 -15 38
-20 0 -4 7 -8 15 -8 20 0 95 -39 123 -63 12 -11 22 -31 22 -44 0 -13 5 -23 10
-23 6 0 10 -7 10 -15 0 -8 6 -15 13 -15 8 0 36 -11 63 -25 47 -25 120 -35 144
-20 27 17 31 57 10 111 -11 29 -22 83 -24 120 -6 78 -29 118 -91 159 -34 22
-46 25 -80 19 -98 -18 -249 6 -297 47 -11 11 -28 18 -37 17 -9 -1 -38 -3 -65
-5z"/>
<path d="M4800 4030 c0 -19 5 -30 14 -30 7 0 19 -6 25 -14 10 -12 6 -15 -19
-21 -25 -5 -36 -2 -51 14 -11 12 -31 21 -46 21 -24 0 -25 -2 -19 -43 5 -33 3
-47 -9 -57 -17 -14 -21 -35 -5 -25 6 3 10 -3 10 -14 0 -26 4 -27 78 -36 47 -5
62 -4 62 6 0 7 9 22 19 33 11 12 21 30 23 41 1 11 7 23 12 27 6 4 4 13 -4 22
-11 14 -9 20 15 40 33 28 20 41 -31 31 -30 -5 -36 -3 -41 14 -8 33 -33 26 -33
-9z"/>
<path d="M6580 3771 c-14 -4 -24 -13 -23 -18 4 -19 -26 -38 -39 -25 -17 17
-38 15 -38 -3 0 -10 -15 -15 -57 -17 -54 -3 -59 -5 -73 -35 -9 -18 -25 -33
-37 -36 -27 -5 -33 0 -33 25 0 25 -12 22 -34 -9 -11 -14 -15 -23 -9 -20 5 4
15 -5 22 -19 10 -22 15 -25 39 -18 37 10 94 6 103 -7 9 -15 76 -3 82 14 3 9 8
9 17 1 8 -8 9 -21 2 -47 -9 -33 -8 -36 17 -46 38 -15 96 0 96 24 0 11 4 25 8
32 4 7 1 26 -8 43 -9 17 -15 36 -13 42 2 5 27 11 54 12 58 2 84 18 84 52 0 24
-11 29 -52 25 -10 -1 -18 2 -18 7 0 9 -45 33 -58 31 -4 -1 -18 -4 -32 -8z"/>
<path d="M2527 3610 c-32 -10 -76 -30 -97 -45 -40 -27 -90 -91 -90 -114 0 -7
-16 -46 -35 -87 -19 -40 -35 -82 -35 -93 0 -22 27 -41 59 -41 20 0 71 -43 71
-60 0 -19 38 -30 65 -20 36 14 41 37 15 72 -15 21 -19 33 -12 40 15 15 42 2
42 -20 0 -26 15 -37 78 -57 28 -10 52 -21 52 -26 0 -4 -10 -15 -22 -23 l-22
-16 23 0 c12 0 31 -10 40 -22 13 -15 29 -21 61 -22 35 -1 45 -5 50 -21 12 -46
41 -75 75 -75 49 0 86 -46 54 -66 -17 -10 39 -61 72 -66 39 -6 51 10 53 73 1
47 -2 56 -32 88 -29 31 -32 37 -16 40 23 4 84 -28 84 -44 0 -7 6 -18 14 -24 8
-7 17 -28 21 -47 4 -26 15 -41 41 -56 26 -15 33 -25 28 -40 -3 -10 0 -26 7
-34 6 -8 10 -16 8 -19 -9 -8 -131 22 -139 34 -13 22 -45 8 -48 -21 -3 -26 14
-38 58 -43 8 -1 33 -14 54 -29 48 -32 70 -30 74 6 3 23 6 26 23 18 10 -6 27
-14 37 -18 45 -21 88 -48 98 -61 10 -13 16 -13 45 -1 41 17 60 39 53 61 -12
41 63 64 121 37 31 -14 31 -19 0 -46 -26 -23 -29 -30 -19 -56 10 -25 29 -19
62 18 30 35 40 39 78 37 24 -1 55 -59 47 -89 -3 -13 3 -25 18 -36 30 -21 79
-21 79 -1 0 16 25 21 34 6 4 -5 28 -20 54 -33 35 -18 56 -22 76 -17 22 6 29 4
37 -14 8 -17 20 -23 52 -25 23 -1 51 -6 62 -11 11 -5 32 -14 48 -20 22 -9 26
-15 21 -35 -7 -29 20 -48 51 -36 34 12 45 2 33 -31 -21 -60 18 -77 89 -39 47
25 61 25 93 0 14 -11 28 -20 32 -20 4 0 28 -20 53 -44 39 -38 45 -49 39 -72
l-7 -27 44 8 c24 4 55 9 69 10 14 1 29 3 35 3 13 3 -86 102 -102 102 -7 0 -19
13 -27 29 -14 26 -22 30 -78 36 -67 8 -122 30 -151 62 -16 18 -16 22 -1 51 18
37 14 36 61 17 48 -20 57 -10 49 59 -7 55 -8 56 -40 56 -18 0 -44 8 -57 19
-37 29 -110 59 -158 64 -24 3 -47 10 -50 15 -6 9 -45 32 -55 32 -2 0 -11 -7
-20 -15 -18 -18 -43 -10 -51 16 -8 25 -27 34 -100 49 -33 8 -67 19 -75 26 -8
7 -27 16 -42 19 -16 4 -29 12 -30 19 0 6 -2 16 -2 22 -3 26 -30 43 -79 49 -61
8 -86 22 -148 86 -26 25 -55 51 -65 57 -15 9 -17 15 -8 29 9 14 6 23 -12 42
-22 23 -26 24 -118 17 l-96 -7 0 26 c0 21 -8 29 -42 44 -24 10 -68 35 -98 55
-30 19 -59 37 -65 40 -19 7 10 40 43 48 40 11 41 33 2 53 -16 9 -30 22 -30 31
0 9 -13 28 -29 44 -22 22 -44 32 -95 41 -55 9 -69 16 -78 34 -11 26 -60 50
-81 42 -7 -3 -21 1 -32 9 -28 21 -176 17 -248 -6z"/>
<path d="M6977 3597 c-13 -18 -26 -41 -28 -52 -5 -22 -43 -32 -62 -16 -8 6
-27 7 -50 1 -21 -4 -55 -6 -77 -3 -45 6 -78 -3 -64 -17 5 -5 42 -14 83 -20 61
-8 96 -7 214 11 78 12 157 21 175 21 27 0 32 4 32 24 0 14 -6 24 -14 24 -7 0
-19 7 -26 15 -13 16 -56 21 -62 7 -1 -5 -14 -12 -28 -15 -22 -5 -28 -2 -37 23
-14 38 -25 38 -56 -3z"/>
<path d="M7145 3185 c-63 -30 -73 -30 -101 -4 -22 20 -27 21 -69 9 -48 -13
-96 -52 -135 -110 -13 -19 -27 -37 -31 -40 -16 -13 -36 -69 -38 -109 -1 -30
-8 -49 -20 -58 -24 -16 -31 -53 -19 -107 16 -76 -29 -150 -136 -224 -27 -18
-50 -42 -53 -53 -5 -16 -13 -19 -47 -18 -22 1 -77 -8 -121 -21 -57 -16 -114
-23 -200 -25 -66 -2 -131 -4 -145 -5 -14 0 -68 6 -120 15 l-94 16 -126 -32
c-69 -17 -129 -34 -133 -36 -10 -6 42 -63 56 -63 4 0 16 -7 24 -16 19 -19 92
-12 128 12 18 11 32 12 65 5 34 -8 48 -6 66 6 18 11 24 12 24 3 0 -10 3 -10
15 0 9 7 19 9 23 5 4 -4 2 -10 -5 -12 -26 -9 -55 -43 -49 -58 7 -20 20 -19 82
5 52 19 52 19 70 -1 20 -22 56 -19 86 8 14 13 15 19 6 30 -16 19 9 35 33 22
10 -5 48 -11 85 -13 36 -3 70 -8 74 -13 4 -4 10 -24 13 -44 4 -30 1 -40 -24
-64 -17 -15 -27 -30 -23 -34 4 -3 9 0 11 7 6 17 33 15 33 -3 0 -8 -20 -28 -45
-45 -49 -34 -52 -41 -30 -84 12 -23 13 -31 3 -37 -9 -6 -1 -13 24 -24 42 -17
61 -44 54 -77 -16 -80 -11 -75 -73 -81 -32 -3 -65 -1 -76 4 -22 13 -38 2 -17
-11 8 -6 67 -10 130 -10 l115 0 -32 20 c-40 24 -44 55 -9 64 19 5 24 12 24 34
-1 23 -7 31 -32 38 -17 5 -30 15 -28 22 1 8 -2 11 -7 8 -5 -3 -14 1 -21 9 -9
11 -10 15 -1 15 7 0 27 11 45 25 45 34 63 32 57 -7 0 -5 9 -8 22 -8 12 0 40
-3 61 -7 28 -4 37 -3 32 5 -4 7 -2 12 3 12 7 0 7 7 -1 20 -7 11 -21 20 -31 20
-14 0 -17 5 -12 19 5 16 -3 25 -34 43 -58 33 -54 53 8 53 27 0 53 -3 57 -7 4
-5 18 -8 30 -8 19 0 25 8 34 41 10 37 9 44 -14 78 -14 20 -26 40 -26 44 0 3
14 27 32 52 36 52 68 58 78 15 4 -15 14 -26 27 -28 11 -2 23 -12 26 -23 6 -22
30 -25 47 -4 15 18 20 65 7 65 -6 0 -7 3 -4 6 4 4 20 1 37 -6 26 -11 33 -10
50 5 18 16 20 16 20 2 0 -9 -4 -19 -10 -22 -5 -3 -10 -15 -10 -26 0 -10 5 -19
10 -19 6 0 10 -7 10 -15 0 -8 5 -15 11 -15 6 0 3 -7 -5 -16 -22 -22 -20 -61 4
-74 15 -8 20 -21 20 -55 0 -37 3 -45 19 -45 20 0 35 36 19 46 -5 3 3 12 18 20
33 18 41 12 26 -21 -16 -35 -15 -43 8 -50 27 -9 25 -18 -9 -38 -33 -19 -45
-22 -36 -7 10 16 -51 12 -64 -4 -9 -11 -9 -15 1 -19 7 -3 -12 -6 -42 -6 -38 0
-50 2 -40 9 20 12 9 21 -18 13 -12 -3 -19 -9 -16 -14 3 -5 1 -9 -5 -9 -6 0 -8
-7 -5 -15 4 -10 0 -15 -14 -15 -25 0 -31 -16 -21 -52 8 -28 -1 -80 -19 -114
-28 -53 -125 -53 -151 1 l-14 28 -14 -26 c-7 -15 -28 -34 -46 -41 -29 -13 -8
-14 200 -15 153 -1 234 -5 238 -12 4 -6 5 -12 3 -14 -2 -2 -215 -6 -473 -9
-259 -3 -487 -9 -507 -15 -22 -5 -38 -5 -38 0 0 5 -46 9 -102 8 -93 -1 -100
-2 -73 -14 21 -9 34 -10 46 -2 13 8 25 8 43 -1 65 -29 2 -52 -114 -40 -104 10
-114 13 -107 37 3 15 -2 20 -25 25 -50 10 -246 7 -253 -4 -8 -12 -52 -13 -59
-1 -3 5 -89 6 -193 4 -253 -8 -503 4 -503 23 0 11 21 14 93 16 80 2 119 3 150
7 4 1 -1 11 -13 23 -11 12 -20 28 -20 35 0 11 -4 11 -19 1 -14 -9 -17 -16 -10
-24 14 -17 0 -24 -58 -30 -91 -10 -142 52 -108 133 14 33 14 37 -2 50 -47 37
-103 43 -130 14 -17 -18 -21 -18 -58 -5 -22 8 -68 14 -102 13 -52 -2 -65 1
-80 19 -21 25 -37 28 -80 18 -22 -5 -41 -2 -62 8 -41 22 -70 21 -64 -2 2 -10
-6 -27 -22 -42 -38 -35 -98 -34 -146 3 -20 15 -40 27 -45 27 -23 1 -85 70 -87
97 -3 39 -39 44 -63 9 -10 -16 -26 -26 -41 -26 -13 0 -34 -6 -46 -14 -19 -13
-28 -12 -77 6 -30 11 -73 26 -95 32 -22 7 -48 16 -57 20 -24 11 -55 -9 -60
-38 -4 -21 1 -28 27 -41 18 -8 49 -15 68 -15 20 0 39 -4 42 -10 3 -5 21 -10
39 -10 48 0 105 -27 118 -55 18 -40 65 -55 165 -53 90 3 153 -12 153 -37 0 -6
8 -19 18 -28 19 -18 151 -69 161 -63 18 10 255 -32 386 -69 33 -10 76 -22 95
-27 19 -5 67 -14 105 -20 39 -6 75 -14 80 -18 6 -5 44 -11 85 -15 41 -4 89
-11 105 -16 40 -12 286 -39 357 -39 38 0 62 5 72 15 31 32 178 12 210 -28 12
-14 44 -33 71 -42 100 -35 186 -42 479 -44 159 -1 292 -3 295 -6 4 -2 20 3 35
10 16 8 39 12 52 9 33 -8 83 4 64 16 -11 7 -7 11 15 19 17 6 38 15 47 21 23
13 64 -3 70 -27 8 -30 87 -43 213 -37 178 9 228 9 268 0 l37 -8 0 272 c0 217
-3 270 -12 263 -23 -18 -115 -24 -128 -8 -13 16 -6 35 13 35 7 0 24 32 37 71
14 39 29 73 33 76 4 3 19 -3 32 -11 l25 -16 0 505 c0 278 -1 505 -2 504 -2 0
-25 -11 -53 -24z m-213 -1194 c-1 -12 -25 -58 -54 -102 -47 -72 -54 -79 -84
-79 -33 0 -55 17 -36 29 5 3 23 29 40 58 l31 52 -32 3 c-26 2 -32 7 -32 28 0
14 3 27 7 30 3 3 41 5 85 4 75 0 78 -1 75 -23z"/>
<path d="M635 3188 c-22 -6 -42 -12 -43 -14 -11 -8 23 -77 49 -98 25 -22 39
-25 99 -24 39 0 70 3 70 7 0 10 -121 141 -129 140 -3 -1 -24 -6 -46 -11z"/>
<path d="M1247 3173 c-4 -3 -7 -19 -7 -34 0 -44 71 -108 182 -165 54 -27 79
-34 126 -34 61 0 102 19 102 46 0 17 -46 65 -101 106 -25 19 -57 29 -119 38
-47 7 -100 21 -118 31 -35 20 -54 24 -65 12z"/>
<path d="M1900 2880 c-22 -17 -23 -22 -12 -39 19 -32 15 -41 -23 -41 -19 0
-35 -4 -35 -10 0 -17 45 -52 114 -87 54 -27 76 -33 102 -28 24 4 34 11 34 24
0 30 -29 79 -61 101 -33 25 -36 36 -12 62 15 17 15 20 3 28 -25 16 -84 11
-110 -10z"/>
<path d="M0 1430 l0 -1430 3600 0 3600 0 0 525 0 525 -30 -6 c-17 -4 -46 0
-71 10 -23 10 -46 13 -51 8 -4 -4 -14 -28 -21 -53 l-13 -44 -123 -3 -123 -3
52 52 c35 35 50 58 48 73 -3 19 -12 22 -97 29 -65 6 -98 13 -106 23 -9 13 -20
11 -83 -14 -40 -16 -75 -32 -79 -35 -8 -9 27 -47 43 -47 16 0 104 -61 104 -72
0 -4 -69 -8 -154 -8 -137 0 -156 2 -168 18 -11 15 -27 18 -108 16 -80 -1 -96
-4 -98 -18 -3 -14 -19 -16 -103 -16 l-99 0 26 41 c14 22 23 47 21 54 -3 7 -29
14 -61 17 -44 4 -63 11 -84 31 -32 31 -44 33 -80 12 -15 -8 -53 -26 -84 -39
-35 -15 -58 -31 -58 -40 0 -9 18 -27 40 -41 22 -14 40 -27 40 -30 0 -3 -149
-5 -332 -5 l-332 0 34 35 34 35 -29 28 c-17 15 -50 51 -74 79 -24 29 -50 54
-57 57 -16 6 -74 -40 -74 -58 0 -7 -21 -32 -46 -55 -50 -45 -50 -41 1 -100
l20 -24 -65 7 c-36 3 -103 10 -149 15 -55 5 -93 5 -111 -2 -22 -8 -38 -7 -71
6 -40 16 -44 16 -74 -3 -38 -23 -122 -27 -150 -7 -24 18 -11 37 26 37 46 0 34
18 -18 26 -27 4 -59 11 -73 16 -13 5 -63 9 -111 9 -70 0 -92 4 -111 18 -66 52
-128 74 -231 82 -56 4 -142 17 -192 30 -49 12 -124 25 -165 28 -86 8 -180 44
-180 70 0 11 -23 26 -66 45 -36 16 -81 39 -100 52 -19 13 -65 31 -102 41 -37
9 -78 24 -92 33 -14 9 -42 20 -63 23 -50 8 -150 76 -157 107 -8 36 -87 65
-168 62 -56 -2 -68 2 -117 33 -30 20 -70 48 -88 64 -17 16 -51 38 -74 50 -41
21 -47 28 -44 61 2 25 -46 83 -92 110 -24 14 -64 39 -89 56 -25 16 -65 36 -89
44 -23 8 -53 25 -65 37 -13 13 -29 23 -37 23 -8 0 -30 16 -51 36 -22 22 -43
34 -54 31 -14 -4 -13 -6 6 -12 12 -4 22 -13 22 -20 0 -7 11 -24 25 -39 14 -15
25 -31 25 -37 0 -5 8 -9 18 -9 9 0 25 -11 34 -24 15 -21 16 -26 3 -36 -9 -7
-26 -10 -42 -5 -27 6 -85 43 -91 57 -4 8 -52 -12 -52 -21 0 -4 11 -19 25 -34
29 -30 26 -33 -13 -13 -15 7 -61 29 -102 49 -41 19 -84 44 -94 56 -18 20 -18
21 0 27 59 19 59 17 15 57 -56 51 -123 51 -113 0 5 -24 3 -25 -29 -18 -42 8
-103 37 -263 123 -33 18 -95 48 -136 68 -113 53 -140 68 -332 183 -209 125
-306 181 -369 215 -25 14 -67 41 -92 60 l-47 36 0 -1430z m1927 478 c51 -50
69 -86 39 -75 -8 3 -28 1 -44 -5 -15 -6 -40 -8 -53 -5 -30 8 -69 39 -69 56 0
6 -7 23 -16 36 -17 26 -16 28 31 38 47 11 61 5 112 -45z m-172 -1428 c0 -159
-2 -175 -18 -178 -20 -4 -287 146 -295 166 -2 8 2 20 9 27 32 32 266 165 284
163 19 -3 20 -11 20 -178z m1921 167 c73 -43 104 -92 104 -167 0 -107 -73
-180 -179 -180 -105 0 -181 75 -181 178 0 107 75 182 180 182 30 -1 64 -6 76
-13z m2084 -167 l0 -160 -160 0 -160 0 0 160 0 160 160 0 160 0 0 -160z"/>
<path d="M1597 543 l-109 -65 109 -64 c59 -35 111 -64 116 -64 4 0 7 58 7 130
0 72 -3 130 -7 130 -5 -1 -57 -30 -116 -67z"/>
<path d="M3523 600 c-63 -38 -83 -131 -42 -197 73 -117 259 -63 259 76 0 52
-29 105 -70 126 -41 21 -109 19 -147 -5z"/>
<path d="M5474 597 c-2 -7 -3 -65 -2 -128 l3 -114 125 0 125 0 0 125 0 125
-123 3 c-95 2 -124 0 -128 -11z"/>
<path d="M1048 2739 c-16 -11 -28 -28 -28 -36 0 -17 41 -57 81 -78 40 -22 159
-25 159 -4 0 17 -153 139 -174 139 -6 0 -23 -10 -38 -21z"/>
<path d="M4899 2478 c0 -2 -3 -31 -5 -64 -4 -45 -1 -65 9 -76 8 -8 18 -24 21
-36 6 -19 14 -22 63 -22 l55 0 -6 -42 c-14 -97 -16 -93 37 -96 27 -2 47 1 47
7 0 6 13 8 33 5 l32 -6 -42 29 c-24 15 -43 31 -43 35 0 4 12 11 28 14 31 8 72
42 72 61 0 13 -12 17 -38 14 -17 -3 -71 49 -72 67 0 6 -6 12 -14 12 -8 0 -18
9 -21 21 -7 19 -7 19 -29 -6 -18 -21 -28 -25 -49 -20 -29 8 -30 10 -31 65 -1
28 -5 36 -23 38 -13 2 -23 2 -24 0z"/>
<path d="M1564 2350 c-14 -21 -24 -47 -22 -56 2 -10 23 -33 46 -51 38 -29 49
-32 85 -27 87 12 147 26 147 34 0 8 -178 120 -213 133 -13 5 -24 -4 -43 -33z"/>
<path d="M3315 2383 c-27 -3 -55 -9 -62 -15 -19 -16 -16 -41 7 -56 11 -7 20
-20 20 -31 0 -19 29 -51 48 -51 6 0 15 8 20 17 9 15 16 15 58 6 53 -12 76 -4
92 33 8 17 18 21 49 19 22 -1 51 -10 65 -19 22 -15 30 -15 47 -4 25 15 26 24
5 45 -18 19 -139 30 -148 14 -8 -13 -48 1 -84 29 -13 11 -34 19 -46 18 -11 -1
-43 -3 -71 -5z"/>
<path d="M5305 2260 c-18 -20 -18 -20 15 -20 29 0 31 -2 18 -12 -9 -7 -18 -25
-22 -40 -4 -19 -13 -28 -26 -28 -23 0 -63 -36 -56 -49 3 -5 18 -11 34 -14 25
-5 29 -12 40 -66 11 -54 16 -61 37 -61 27 0 28 26 2 45 -26 19 -20 41 20 74
43 35 53 35 71 -2 15 -30 46 -36 76 -14 24 18 14 47 -21 68 -16 8 -35 29 -43
45 -8 16 -22 34 -30 41 -13 11 -13 12 3 13 26 0 20 20 -7 20 -13 0 -26 -7 -30
-15 -8 -21 -20 -19 -31 7 -14 30 -28 32 -50 8z"/>
<path d="M2175 2058 c-11 -34 -25 -121 -20 -128 2 -4 30 -20 61 -34 l56 -27
94 32 c52 17 94 35 94 38 -1 8 -252 131 -268 131 -7 0 -14 -6 -17 -12z"/>
<path d="M2837 1803 c-3 -4 0 -34 6 -66 7 -40 7 -67 0 -92 -10 -31 -9 -37 10
-50 12 -8 34 -15 48 -15 15 0 40 -7 56 -16 28 -17 31 -16 136 35 59 29 107 57
107 62 0 14 -203 107 -270 125 -30 8 -62 16 -71 19 -10 3 -19 2 -22 -2z"/>
<path d="M3564 1546 c-3 -8 4 -32 15 -54 11 -22 22 -66 24 -97 4 -64 14 -75
68 -75 20 0 42 -7 49 -15 7 -8 19 -15 27 -15 12 0 74 46 133 100 9 8 31 23 48
32 57 31 42 45 -55 50 -78 4 -98 10 -173 46 -89 44 -127 51 -136 28z"/>
<path d="M3251 1465 c-24 -13 -64 -27 -88 -31 -51 -7 -55 -25 -10 -43 110 -44
223 -81 234 -77 9 4 1 28 -31 88 -23 45 -47 83 -52 85 -5 1 -29 -9 -53 -22z"/>
<path d="M4325 1400 c-4 -6 0 -21 9 -33 51 -70 69 -105 75 -146 l6 -46 57 -5
c32 -3 63 -11 70 -18 22 -22 44 -13 76 32 18 24 62 68 98 97 76 60 74 69 -18
80 -35 4 -124 17 -198 28 -156 24 -167 25 -175 11z"/>
<path d="M5166 1291 c-3 -4 10 -25 29 -47 23 -26 38 -57 45 -91 6 -29 15 -55
20 -58 5 -3 26 4 47 15 44 23 61 25 87 5 16 -12 24 -11 65 10 25 14 52 25 59
25 26 0 93 51 90 68 -3 14 -22 18 -118 25 -136 9 -208 19 -272 40 -26 9 -50
12 -52 8z"/>
<path d="M4050 1260 c-25 -17 -69 -42 -97 -55 -90 -42 -62 -75 83 -102 114
-21 160 -21 180 -2 14 14 12 20 -18 56 -18 22 -45 61 -60 87 -15 25 -31 46
-35 46 -5 0 -28 -14 -53 -30z"/>
<path d="M5990 1204 c0 -3 12 -18 28 -34 15 -15 34 -38 43 -51 18 -26 32 -27
180 -16 73 5 93 13 128 51 21 22 22 26 8 32 -9 3 -45 1 -80 -5 -84 -14 -126
-14 -173 2 -45 16 -134 29 -134 21z"/>
</g>
</svg>
