<?xml version="1.0" standalone="no"?>
<!DOCTYPE svg PUBLIC "-//W3C//DTD SVG 20010904//EN"
 "http://www.w3.org/TR/2001/REC-SVG-20010904/DTD/svg10.dtd">
<svg version="1.0" xmlns="http://www.w3.org/2000/svg"
 width="720.000000pt" height="1280.000000pt" viewBox="0 0 720.000000 1280.000000"
 preserveAspectRatio="xMidYMid meet">
<metadata>
Created by potrace 1.16, written by Peter Selinger 2001-2019
</metadata>
<g transform="translate(0.000000,1280.000000) scale(0.100000,-0.100000)"
fill="#000000" stroke="none">
<path d="M0 11510 c0 -1248 1 -1290 18 -1281 40 21 45 37 37 127 -10 127 -8
194 8 213 8 9 17 27 21 41 18 73 161 166 278 179 90 11 100 27 92 150 -7 95
-6 97 25 151 38 67 56 89 99 119 37 26 143 51 218 51 70 0 89 20 98 102 13
124 47 201 113 254 76 61 117 75 245 83 127 8 140 19 157 134 20 126 45 169
145 246 66 50 137 71 246 71 81 0 88 2 112 28 31 32 58 84 58 109 0 10 6 27
14 38 7 11 16 34 20 50 10 40 98 122 163 152 57 26 164 34 255 19 26 -5 58 -6
72 -2 32 8 66 44 66 68 0 32 39 98 85 144 l44 44 -1344 0 -1345 0 0 -1290z"/>
<path d="M5096 12740 c-4 -32 -13 -64 -21 -70 -8 -7 -15 -20 -15 -29 0 -9 -5
-22 -11 -28 -7 -7 -12 -31 -12 -55 0 -27 -6 -49 -16 -58 -21 -19 -19 -72 4
-125 10 -22 17 -53 17 -70 -1 -16 6 -40 14 -52 19 -30 18 -36 -5 -28 -16 5
-19 0 -23 -30 -2 -19 0 -35 5 -35 10 0 5 -50 -8 -82 -5 -13 3 -27 26 -49 27
-25 39 -30 64 -26 40 7 48 1 70 -47 l18 -38 46 8 c25 5 108 9 184 9 130 0 139
1 150 21 7 11 31 38 55 58 23 21 42 46 42 56 0 38 47 32 94 -11 28 -26 35 -24
89 25 l47 44 0 71 c0 38 -7 91 -16 117 -19 58 -13 66 60 72 l55 4 64 -66 65
-66 84 1 c65 1 93 -4 132 -21 46 -21 58 -22 182 -15 146 8 150 7 304 -55 96
-38 240 -70 318 -70 l42 0 0 350 0 350 -364 0 -364 0 -7 -30 c-4 -19 -2 -36 5
-46 7 -8 12 -40 12 -70 0 -62 -15 -86 -54 -88 -18 -1 -23 -7 -23 -29 0 -20 -8
-33 -26 -44 -34 -20 -57 -12 -64 24 -4 15 -10 36 -16 45 -5 10 -9 24 -9 32 0
8 -7 22 -16 30 -22 23 -16 102 9 100 13 -1 17 6 17 37 0 36 -2 39 -28 39 -21
0 -40 -12 -70 -44 -23 -25 -42 -49 -42 -54 0 -5 -7 -15 -15 -22 -8 -6 -21 -35
-29 -63 -24 -78 -27 -82 -71 -67 -26 9 -40 20 -47 41 -9 25 -15 29 -46 29 -47
0 -79 20 -172 109 l-75 71 -301 0 -302 -1 -6 -59z"/>
<path d="M4378 12681 c-25 -46 -26 -50 -10 -63 31 -25 102 -71 105 -67 2 2 15
27 30 56 22 41 25 54 15 62 -28 24 -90 61 -101 61 -7 0 -24 -22 -39 -49z"/>
<path d="M3789 12576 c-25 -51 -25 -53 -8 -64 10 -7 25 -12 32 -12 7 0 29 -14
50 -31 41 -34 53 -32 62 10 3 16 13 35 21 42 22 18 17 36 -13 48 -16 6 -43 22
-62 36 -19 14 -39 25 -45 24 -6 0 -23 -24 -37 -53z"/>
<path d="M4160 12521 c-32 -6 -35 -10 -48 -61 -21 -87 -21 -95 8 -94 62 2 206
28 218 38 10 10 0 24 -47 69 -59 57 -66 60 -131 48z"/>
<path d="M3640 12411 c-8 -5 -28 -13 -45 -18 -27 -7 -31 -14 -36 -58 -3 -28
-12 -62 -19 -78 -7 -15 -11 -30 -8 -33 11 -10 196 38 248 65 22 12 18 34 -8
47 -13 7 -41 28 -61 48 -38 37 -46 40 -71 27z"/>
<path d="M4529 12383 c-1 -5 -1 -12 0 -16 1 -4 -4 -18 -11 -30 -6 -12 -12 -34
-14 -50 -1 -15 -7 -34 -14 -42 -25 -30 -70 -11 -70 30 0 12 -6 33 -12 47 -10
21 -18 25 -43 22 -16 -2 -56 -5 -88 -8 -36 -3 -78 -15 -108 -30 -41 -22 -62
-26 -136 -26 -123 0 -381 -66 -414 -106 -6 -8 -19 -14 -28 -14 -13 0 -14 -2
-2 -9 8 -5 29 -7 46 -4 19 3 35 0 39 -6 4 -6 25 -11 47 -11 27 0 39 -4 39 -14
0 -8 9 -18 20 -21 15 -5 19 -12 15 -25 -4 -14 2 -23 24 -35 45 -23 64 -56 51
-89 -5 -15 -13 -25 -18 -22 -4 2 -9 -22 -10 -55 -3 -54 -1 -60 20 -68 33 -13
45 -30 51 -78 3 -29 1 -43 -6 -43 -8 0 -7 -3 1 -9 9 -5 11 -19 7 -43 -5 -26
-3 -37 8 -41 8 -3 19 -25 25 -50 7 -25 19 -47 27 -51 8 -3 15 -11 15 -18 0 -7
12 -18 28 -25 35 -14 153 -26 132 -13 -9 6 -10 10 -3 10 6 0 15 -4 18 -10 8
-12 75 -13 75 -1 0 5 10 7 21 4 18 -5 20 -3 14 16 -12 38 3 70 46 97 22 14 54
38 71 55 17 16 37 29 43 29 7 0 19 10 27 23 9 12 53 63 99 114 200 218 201
219 214 289 l12 65 -28 20 c-28 20 -38 52 -20 63 15 10 1 41 -22 52 -16 6 -21
17 -19 34 1 14 7 27 12 28 6 2 10 14 10 27 0 20 -5 24 -30 23 -16 -1 -30 -4
-30 -8 0 -16 -59 -7 -76 11 -17 19 -53 26 -55 12z"/>
<path d="M2690 12215 c0 -9 -9 -43 -21 -77 -22 -68 -18 -78 34 -78 15 0 46 -9
68 -20 30 -16 40 -17 43 -8 22 77 35 141 31 148 -4 7 -132 50 -149 50 -3 0 -6
-7 -6 -15z"/>
<path d="M3080 12204 c-14 -8 -37 -18 -52 -23 -25 -10 -26 -12 -16 -48 6 -21
7 -62 4 -91 -5 -42 -4 -53 6 -49 202 85 228 98 228 113 0 13 -51 54 -67 54 -6
0 -18 9 -29 21 -30 33 -47 39 -74 23z"/>
<path d="M2539 11909 c-13 -12 -34 -25 -47 -30 -20 -8 -23 -13 -16 -42 4 -17
6 -58 6 -89 -1 -45 2 -58 13 -58 19 0 230 139 230 152 0 5 -27 21 -59 34 -33
13 -67 31 -76 39 -21 19 -22 19 -51 -6z"/>
<path d="M2136 11873 c-3 -3 -6 -26 -6 -50 0 -24 -5 -52 -12 -62 -20 -33 -4
-48 62 -54 33 -4 70 -12 81 -18 12 -6 22 -9 23 -7 2 2 6 40 10 86 6 82 6 82
-17 82 -13 0 -37 4 -53 9 -50 16 -81 21 -88 14z"/>
<path d="M3152 11711 c-27 -36 -66 -47 -98 -26 -44 28 -61 20 -67 -32 -4 -35
-1 -53 10 -65 11 -12 11 -18 3 -23 -8 -5 -10 -22 -7 -44 4 -32 2 -37 -16 -37
-14 0 -26 14 -41 48 l-21 47 -47 -3 c-44 -3 -47 -2 -53 25 -4 15 -3 48 0 74 6
37 5 45 -8 45 -22 0 -227 -139 -227 -154 0 -14 113 -58 143 -56 48 4 55 1 52
-26 -1 -15 -10 -31 -19 -36 -9 -5 -16 -20 -16 -32 0 -13 -6 -27 -12 -30 -40
-20 -73 -45 -70 -55 1 -6 -4 -11 -12 -11 -9 0 -12 8 -9 24 5 22 -1 26 -51 40
-31 9 -61 14 -66 11 -6 -3 -11 -27 -11 -53 -3 -92 -9 -103 -64 -118 -27 -7
-60 -13 -71 -14 -12 0 -33 -9 -47 -20 -39 -31 -45 -24 -8 10 28 26 32 35 27
63 -3 18 -9 51 -12 75 -4 23 -10 42 -14 42 -17 0 -110 -58 -155 -96 -46 -40
-53 -64 -18 -64 32 0 94 -24 116 -45 20 -20 34 -22 136 -23 123 -2 162 -13
171 -50 5 -21 58 -62 80 -62 13 0 45 -32 55 -56 7 -17 8 -17 12 -1 3 9 8 17
12 17 10 0 31 -46 31 -65 0 -18 -26 -20 -33 -2 -3 7 -6 5 -6 -5 -1 -18 -29
-38 -55 -38 -8 0 -27 -12 -43 -26 -15 -14 -40 -28 -55 -31 -15 -3 -29 -11 -32
-19 -3 -7 -12 -11 -20 -8 -28 11 -34 -6 -15 -43 10 -21 19 -55 19 -77 0 -31
10 -56 45 -108 25 -37 51 -71 57 -75 7 -4 31 -6 55 -4 37 2 43 0 43 -17 0 -33
65 -46 73 -14 3 11 5 7 6 -10 1 -19 11 -33 38 -49 21 -13 44 -24 51 -25 20 -3
52 -35 52 -52 0 -10 -4 -12 -12 -5 -14 10 -53 11 -78 1 -32 -13 -98 -17 -128
-8 -20 5 -30 5 -27 -1 4 -5 -6 -9 -20 -9 -16 0 -24 4 -20 11 4 5 -10 3 -31 -6
-20 -8 -39 -13 -42 -11 -2 3 -17 -1 -33 -9 -15 -8 -37 -15 -49 -15 -13 0 -20
-7 -20 -19 0 -23 -45 -32 -113 -21 -53 8 -97 3 -97 -11 0 -6 7 -12 15 -15 50
-20 -29 -58 -118 -57 -45 1 -64 6 -90 26 -59 45 -72 62 -97 115 -14 28 -28 52
-31 52 -3 0 -18 -9 -33 -21 -22 -17 -25 -27 -22 -62 2 -29 9 -43 20 -45 9 -2
16 -9 16 -17 0 -19 -42 -26 -60 -10 -25 23 -36 19 -76 -31 -28 -34 -42 -44
-58 -40 -12 3 -28 1 -36 -4 -9 -6 -17 -5 -23 3 -5 7 -5 -3 -2 -21 6 -27 2 -39
-16 -58 -12 -13 -28 -24 -35 -24 -7 0 -15 -6 -17 -12 -4 -10 -6 -10 -6 0 -2
26 -21 10 -21 -18 0 -16 5 -30 10 -30 6 0 10 -13 10 -29 0 -30 28 -50 50 -36
5 3 30 -4 55 -15 25 -11 50 -18 55 -15 6 3 10 -5 10 -19 0 -19 9 -30 32 -42
18 -9 38 -23 46 -30 7 -8 20 -14 27 -14 17 0 25 -26 21 -65 -3 -25 -13 -36
-61 -62 -31 -18 -67 -33 -80 -33 -12 0 -28 -7 -35 -15 -7 -8 -19 -15 -26 -15
-8 0 -14 -4 -14 -10 0 -5 -7 -10 -15 -10 -26 0 -16 -18 15 -29 33 -11 37 -20
17 -40 -10 -10 -6 -18 21 -42 18 -16 39 -29 47 -29 9 0 15 -10 15 -25 0 -14 6
-25 13 -25 15 0 42 -48 38 -67 -1 -7 3 -13 9 -13 5 0 10 -9 10 -20 0 -11 6
-20 13 -20 6 0 22 -16 35 -36 17 -27 22 -45 18 -72 -7 -54 3 -92 24 -92 12 0
20 -11 24 -35 4 -20 4 -39 1 -44 -3 -6 -1 -12 4 -15 5 -3 12 9 15 27 l7 32 14
-39 c14 -41 8 -69 -17 -79 -10 -4 -10 -6 0 -6 25 -2 11 -28 -28 -50 -22 -12
-38 -26 -35 -31 12 -19 -37 -28 -210 -39 -201 -13 -246 -19 -242 -29 2 -8 -7
-12 -28 -12 -8 0 -17 11 -21 25 -3 14 -11 29 -18 33 -15 10 -82 112 -90 137
-3 11 -22 37 -41 58 -19 21 -35 42 -35 48 0 12 -57 12 -65 -1 -3 -6 -12 -49
-19 -98 -12 -75 -12 -90 1 -110 8 -13 12 -34 9 -46 -3 -11 -1 -27 4 -35 5 -9
2 -23 -11 -40 -10 -14 -19 -35 -20 -46 -6 -65 12 -124 30 -97 6 11 13 7 30
-16 28 -40 27 -62 -2 -62 -41 0 -85 -57 -58 -75 11 -6 8 -155 -3 -173 -4 -7
-16 -12 -27 -12 -22 0 -25 -13 -5 -32 8 -9 13 -36 12 -78 -1 -52 2 -65 15 -68
32 -6 50 26 43 74 -7 48 2 55 29 23 l18 -20 37 32 c20 18 46 42 58 53 32 31
67 56 80 56 6 0 28 12 50 26 39 27 70 37 116 38 14 1 24 4 21 9 -2 4 1 7 6 7
6 0 11 -4 11 -10 0 -20 40 -50 67 -51 16 0 45 2 65 6 34 7 38 5 48 -19 25 -66
-2 -195 -40 -196 -8 0 -21 -9 -28 -20 -7 -11 -17 -20 -23 -20 -6 0 -24 -11
-40 -25 -16 -13 -36 -22 -44 -19 -9 4 -18 -1 -21 -11 -4 -10 -19 -23 -33 -29
-54 -25 -88 -50 -109 -83 -21 -32 -30 -93 -14 -93 11 0 62 -158 62 -191 0 -15
7 -32 16 -40 13 -10 15 -34 12 -145 l-3 -133 25 -3 c17 -2 25 -9 26 -23 0 -11
8 -34 17 -52 22 -41 21 -50 -3 -58 -10 -3 -25 -18 -33 -33 -12 -25 -11 -30 14
-56 l27 -29 -36 -49 c-19 -28 -41 -52 -48 -55 -7 -3 -16 -25 -20 -49 -3 -24
-11 -44 -16 -44 -6 0 -5 -6 2 -15 20 -24 -11 -19 -51 8 -60 39 -89 49 -95 32
-9 -22 -26 -18 -22 5 2 13 -6 27 -23 38 -168 113 -169 113 -169 90 0 -6 7 -19
16 -29 12 -14 13 -21 4 -36 -15 -24 11 -93 34 -93 9 0 16 -5 16 -10 0 -20 -29
-68 -45 -74 -23 -8 -15 -50 10 -55 25 -4 36 -21 29 -43 -3 -10 2 -28 10 -40
11 -15 14 -34 10 -60 -4 -24 -2 -43 6 -53 11 -13 10 -23 0 -56 -11 -32 -11
-42 -1 -48 11 -7 41 -56 41 -67 0 -2 -9 -4 -20 -4 -18 0 -20 -4 -14 -40 4 -27
3 -40 -5 -40 -6 0 -11 -7 -11 -16 0 -27 -23 -9 -48 37 -17 32 -22 54 -19 82 3
23 1 40 -7 45 -13 7 -47 189 -53 276 -1 27 2 55 8 63 13 14 -6 139 -22 149 -5
3 -9 29 -10 57 0 75 -14 146 -30 162 -17 17 -59 9 -59 -11 0 -8 -10 -14 -22
-14 -21 0 -21 -2 -15 -105 6 -106 -3 -164 -26 -166 -7 -1 -24 0 -40 1 -24 1
-27 -2 -27 -29 0 -17 6 -40 12 -52 11 -18 9 -24 -17 -48 -30 -26 -38 -39 -84
-143 -11 -26 -25 -49 -30 -52 -11 -7 -12 -136 -1 -156 5 -10 27 -16 62 -18 80
-5 95 -19 92 -84 -1 -29 -5 -61 -9 -70 -13 -34 -82 12 -127 85 -12 20 -20 0
-25 -65 -3 -35 -11 -76 -19 -92 -19 -40 -19 -41 20 -64 19 -11 52 -48 73 -81
21 -33 42 -60 47 -61 5 0 3 6 -3 13 -8 11 -6 18 8 32 11 9 23 30 26 46 4 17
18 41 33 54 14 13 26 34 27 47 2 30 31 35 45 7 10 -18 8 -26 -10 -51 -12 -16
-19 -36 -16 -44 3 -8 -1 -14 -9 -14 -10 0 -12 -6 -7 -21 5 -14 1 -42 -12 -79
l-20 -58 34 -34 c19 -19 47 -49 62 -66 16 -20 35 -32 51 -32 23 0 25 -4 29
-62 3 -35 9 -72 13 -83 8 -18 7 -19 -9 -6 -15 13 -19 13 -27 0 -5 -8 -9 -21
-9 -29 0 -9 -7 -26 -16 -38 -15 -21 -13 -24 30 -68 25 -25 46 -52 46 -60 0
-26 27 -14 33 15 3 16 17 42 31 57 23 26 25 27 26 9 0 -11 -7 -47 -15 -80 -14
-61 -7 -173 14 -213 4 -9 12 -35 16 -57 3 -22 21 -62 38 -90 30 -47 32 -55 31
-145 0 -52 -2 -103 -5 -113 -3 -14 6 -23 36 -34 22 -9 60 -31 84 -49 24 -19
48 -34 53 -34 9 0 9 2 13 69 3 43 32 111 47 111 12 0 -1 -137 -17 -190 -8 -25
-13 -54 -11 -64 3 -20 63 -86 78 -86 4 0 8 -13 8 -29 0 -16 7 -34 16 -42 8 -7
24 -29 34 -49 10 -20 26 -42 34 -49 9 -8 16 -20 16 -27 0 -8 10 -35 21 -60 18
-37 21 -56 16 -104 l-7 -58 43 -7 c45 -7 82 -27 109 -57 16 -19 17 -18 31 3
10 13 13 30 9 43 -4 11 -5 44 -1 71 5 47 6 48 7 11 1 -21 7 -56 14 -78 9 -31
9 -44 0 -59 -7 -10 -12 -23 -12 -29 0 -10 871 -15 882 -5 5 5 -23 144 -33 160
-4 6 -3 62 2 125 4 63 13 193 19 289 8 141 14 182 32 220 11 25 20 50 19 54
-2 9 63 109 93 145 25 28 46 28 46 1 0 -16 3 -19 13 -12 13 10 24 10 49 -1 9
-4 21 -5 25 -3 8 6 32 51 51 100 15 35 27 34 41 -3 5 -16 15 -30 20 -30 6 0
11 -9 11 -20 0 -19 2 -18 30 7 17 15 29 32 26 38 -4 12 61 5 97 -10 10 -4 17
-3 17 5 0 14 25 40 38 40 6 0 12 6 15 13 3 9 7 9 17 0 14 -13 5 -33 -15 -33
-12 0 -15 -15 -14 -66 1 -56 4 -67 20 -71 12 -4 19 -14 19 -30 0 -28 26 -83
40 -83 13 0 13 -36 0 -60 -8 -16 -7 -18 4 -14 21 8 24 -15 24 -201 0 -126 -3
-176 -14 -197 -16 -30 -20 -73 -5 -49 5 8 7 -12 5 -50 -7 -98 -14 -130 -30
-136 -8 -3 -13 -10 -12 -17 5 -27 -14 -76 -30 -76 -15 0 -15 -2 -2 -10 10 -6
11 -10 3 -10 -7 0 -13 -4 -13 -10 0 -7 253 -10 739 -10 495 0 749 -3 768 -11
52 -19 104 -62 131 -108 l27 -46 5 -517 5 -518 46 24 c63 31 89 37 89 21 0 -8
-4 -16 -9 -19 -5 -4 -12 -25 -16 -49 -4 -23 -16 -60 -26 -81 -11 -22 -19 -49
-19 -61 0 -21 -34 -45 -63 -45 -7 0 -23 -17 -36 -37 -29 -47 -71 -82 -119 -99
-29 -10 -201 -13 -817 -14 -777 -1 -780 -1 -756 -20 13 -11 35 -20 50 -20 14
0 38 -8 52 -18 15 -9 53 -34 85 -56 l58 -38 -24 -18 c-14 -10 -44 -21 -67 -25
-24 -3 -43 -10 -43 -14 0 -11 77 -81 89 -81 5 0 16 -6 23 -13 22 -21 165 -117
185 -123 10 -4 26 -14 36 -22 26 -23 34 -5 14 30 -18 31 -36 158 -23 158 4 0
18 -24 31 -52 31 -70 66 -108 98 -108 14 0 32 -7 40 -15 10 -9 17 -11 19 -4 2
6 15 -7 28 -28 32 -48 92 -81 149 -81 26 0 47 -5 52 -13 5 -8 9 -10 9 -6 0 12
40 -12 40 -24 0 -16 -21 -33 -55 -44 -41 -14 -45 -43 -8 -51 15 -3 60 -28 98
-54 67 -46 185 -109 233 -124 30 -10 29 13 -2 63 -27 43 -47 119 -27 107 6 -4
11 -14 11 -21 0 -8 13 -29 28 -47 16 -18 33 -42 39 -52 12 -22 6 -56 -11 -56
-19 0 18 -20 38 -20 10 0 35 -12 55 -27 68 -52 111 -68 111 -40 0 6 6 1 13
-13 16 -31 63 -40 70 -13 4 15 5 15 6 -3 1 -20 43 -64 65 -68 6 -1 21 -7 33
-14 12 -7 34 -12 50 -12 15 -1 62 -8 103 -16 41 -8 86 -16 100 -17 14 -2 24
-8 22 -15 -1 -7 2 -12 8 -12 5 0 10 5 10 10 0 7 7 7 21 -1 12 -6 35 -8 51 -5
42 8 76 -2 84 -26 5 -17 11 -19 37 -13 72 15 245 5 261 -17 10 -14 82 -29 161
-33 17 -1 36 -3 43 -3 8 -1 30 -19 50 -40 20 -20 54 -46 75 -57 l38 -20 -72
-3 c-60 -2 -74 0 -90 17 -11 11 -39 22 -71 26 -29 4 -58 12 -65 17 -7 5 -17 7
-23 3 -15 -9 -12 -32 5 -39 8 -3 15 -10 15 -16 0 -6 -85 -10 -250 -10 -170 0
-250 3 -250 11 0 30 63 109 88 109 7 0 12 6 10 13 -3 7 -29 13 -68 15 -36 2
-69 7 -75 11 -5 5 -44 12 -85 16 -41 4 -104 13 -140 21 -36 8 -71 14 -77 14
-22 0 -13 -34 13 -55 29 -22 114 -132 114 -146 0 -5 -53 -9 -117 -9 l-118 1
-35 46 c-19 25 -38 54 -42 64 -13 34 -48 22 -134 -50 -6 -5 -25 -12 -43 -16
-24 -5 -30 -10 -22 -18 6 -6 11 -15 11 -19 0 -4 -1012 -8 -2250 -8 l-2250 0 0
-480 0 -480 3600 0 3600 0 -2 1323 c-1 727 -3 1302 -5 1277 -3 -25 -8 -49 -14
-54 -5 -6 -9 -23 -9 -38 0 -15 -5 -28 -11 -28 -5 0 -8 -4 -5 -8 7 -12 -14
-155 -25 -168 -5 -6 -10 -33 -11 -60 -1 -27 -8 -57 -16 -66 -14 -16 -13 -18 7
-18 20 0 21 -1 7 -16 -19 -18 -22 -94 -4 -112 8 -8 5 -14 -15 -21 -17 -7 -27
-18 -27 -30 0 -30 -31 -43 -70 -28 -26 9 -34 9 -37 0 -6 -18 -33 -16 -33 2 0
17 1 17 -59 20 -32 3 -50 10 -68 29 -13 14 -29 26 -36 26 -16 1 -77 57 -77 71
0 12 -40 72 -52 77 -15 7 -9 62 7 62 9 0 17 14 20 37 4 21 13 52 21 70 8 17
14 38 14 46 0 9 5 19 11 22 25 16 62 179 74 330 2 39 9 93 15 120 6 28 13 79
16 115 3 36 10 77 16 91 5 15 11 42 14 60 19 151 28 200 46 239 11 25 21 70
23 100 1 31 6 66 10 79 5 16 2 26 -11 35 -16 12 -15 13 5 19 33 8 121 -45 121
-73 0 -6 6 -10 13 -10 28 0 41 -44 38 -133 -1 -54 2 -87 8 -87 12 0 30 -61 37
-132 3 -28 12 -61 20 -72 8 -14 10 -26 4 -36 -5 -8 -3 -24 5 -40 8 -15 13 -40
13 -57 -1 -16 4 -38 10 -49 9 -14 11 193 12 807 l0 826 -39 11 c-62 19 -93 14
-36 -6 32 -11 51 -24 53 -35 4 -22 -25 -57 -48 -57 -9 0 -20 -4 -25 -9 -6 -4
-25 -11 -43 -15 -30 -5 -38 -1 -73 34 -33 33 -40 46 -37 73 3 30 6 32 40 32
20 1 40 3 43 7 8 8 -41 16 -159 27 -53 5 -104 15 -111 21 -26 22 -113 2 -151
-34 -18 -17 -54 -47 -81 -66 -26 -19 -52 -41 -56 -47 -14 -23 -56 -15 -69 12
-8 18 -17 24 -27 19 -9 -3 -25 -9 -36 -12 -11 -3 -23 -10 -27 -16 -13 -19
-111 -12 -143 10 -59 42 -161 81 -245 93 -101 15 -143 35 -198 95 -47 51 -118
96 -151 96 -23 0 -338 201 -442 282 -25 19 -32 19 -97 8 -112 -19 -233 9 -342
78 -59 38 -195 164 -211 197 -6 11 -19 36 -29 55 -10 19 -22 66 -26 103 -5 55
-11 70 -28 79 -11 6 -50 41 -86 78 -81 83 -112 106 -225 165 -234 122 -225
116 -225 152 0 18 5 33 10 33 16 0 12 19 -10 50 -11 15 -34 63 -52 106 -28 70
-31 89 -30 169 1 52 8 105 16 125 8 19 20 49 27 67 9 22 22 33 41 37 25 5 28
10 28 42 0 21 6 45 14 53 8 9 17 28 21 43 9 35 -31 64 -72 53 -65 -16 -162
-182 -184 -315 -12 -70 -28 -120 -39 -120 -5 0 -12 -10 -15 -22 -6 -20 -47
-118 -49 -118 -24 6 -132 70 -134 81 -3 15 -81 88 -95 89 -5 0 -30 18 -57 41
-27 23 -53 38 -59 34 -10 -6 -55 27 -129 91 -53 47 -62 54 -69 53 -5 -1 -17
11 -28 26 -25 33 -25 99 -1 172 17 52 17 54 -7 140 -32 111 -38 175 -29 287 6
72 5 92 -7 103 -13 13 -12 31 4 141 20 143 24 417 6 450 -6 12 -11 34 -11 51
0 17 -3 31 -8 31 -9 0 -42 75 -42 98 0 14 -2 15 -10 2 -15 -24 -22 -6 -27 79
-4 56 -2 85 6 95 8 9 10 24 5 38 -6 19 -4 21 7 11 12 -9 14 3 14 83 0 68 3 94
12 94 18 0 32 31 84 185 50 148 50 142 3 171 -17 10 -16 13 11 37 66 58 64 55
60 126 -7 100 -9 111 -22 111 -7 0 -13 9 -13 20 0 11 -7 20 -15 20 -8 0 -23 9
-32 20 -10 11 -25 20 -35 20 -10 0 -18 7 -18 16 0 9 -6 28 -14 42 -27 50 -37
97 -43 200 -7 114 5 186 43 263 29 58 44 70 98 76 36 4 51 1 82 -21 30 -20 51
-26 94 -26 48 0 57 3 65 22 6 14 28 29 54 38 l45 15 17 87 c9 48 20 92 24 97
15 25 -8 100 -43 140 -19 23 -41 41 -47 41 -7 0 -23 8 -36 18 -13 11 -36 22
-51 26 -19 4 -28 13 -28 26 0 23 0 23 -35 10 -23 -9 -28 -7 -32 10 -4 14 -14
20 -33 20 -16 0 -30 7 -34 16 -4 10 -13 13 -27 9 -14 -5 -25 -2 -30 6 -7 11
-12 12 -29 1 -18 -11 -20 -10 -20 13 0 18 5 25 20 25 11 0 23 -7 26 -15 4 -11
21 -15 58 -15 47 0 56 4 82 33 33 37 51 81 60 152 4 28 12 53 18 57 7 5 4 8
-6 8 -22 0 -23 8 -3 30 11 12 16 43 18 105 2 73 6 93 22 111 12 12 36 53 55
91 18 37 44 82 57 99 13 17 23 36 23 41 0 11 72 80 128 122 18 13 32 31 32 40
0 17 -91 65 -145 76 -60 13 -127 22 -152 19 -34 -4 -63 12 -63 34 0 9 -4 23
-9 31 -7 11 -13 7 -25 -18 -23 -43 -14 -116 17 -142 l22 -18 -45 -1 c-25 0
-50 4 -55 8 -12 9 -53 109 -56 137 -1 11 -1 39 0 62 1 49 36 97 72 98 13 1 44
2 68 3 l44 2 -7 77 c-3 42 -11 82 -16 87 -6 6 -10 22 -10 37 0 39 -13 43 -38
10z m-2201 -5176 c5 4 9 -10 9 -30 0 -20 6 -46 14 -58 8 -12 17 -44 21 -72 8
-57 23 -84 36 -63 11 16 11 -40 1 -96 -5 -28 -13 -41 -31 -47 -22 -9 -23 -7
-18 18 3 15 -1 46 -8 68 -7 22 -16 60 -20 85 -4 25 -13 67 -21 94 -17 60 -19
141 -3 113 6 -9 14 -15 20 -12z m909 -192 c0 -16 6 -23 19 -23 11 0 22 -6 25
-12 5 -10 7 -10 12 0 3 6 14 12 23 12 10 0 21 3 25 7 4 4 38 9 76 11 68 3 70
3 66 -20 -3 -13 -5 -26 -5 -29 -1 -4 -8 -10 -17 -13 -11 -4 -15 -2 -11 7 4 10
-2 13 -19 9 -20 -4 -24 -10 -24 -36 1 -51 -11 -96 -26 -96 -21 0 -17 -27 7
-51 12 -12 19 -30 17 -44 -1 -13 6 -32 16 -44 11 -12 16 -29 13 -41 -3 -11 1
-27 10 -35 8 -8 12 -19 9 -24 -3 -5 1 -31 10 -57 8 -27 17 -77 20 -112 5 -50
3 -63 -10 -68 -14 -5 -14 -8 -1 -27 17 -24 20 -54 5 -59 -5 -1 -11 -29 -12
-60 -1 -32 -7 -58 -13 -58 -5 0 -19 -20 -29 -43 -18 -40 -56 -96 -83 -125 -18
-18 -16 -27 2 -12 8 6 19 9 25 5 5 -3 10 -1 10 4 0 6 7 11 15 11 8 0 24 9 36
21 24 24 40 17 21 -9 -7 -9 -16 -27 -22 -39 -5 -13 -15 -23 -21 -23 -8 0 -8
-4 1 -15 17 -20 3 -36 -28 -33 -25 3 -26 1 -26 -54 -1 -45 2 -58 14 -59 10 0
11 -2 3 -6 -7 -2 -13 -11 -13 -19 0 -20 -10 -18 -78 18 -59 30 -187 146 -252
227 -71 90 -100 174 -115 329 -8 79 10 296 30 356 7 23 16 58 20 79 8 50 39
109 87 171 21 27 38 52 38 57 0 5 7 6 15 3 8 -4 15 -1 15 5 0 16 42 60 71 75
22 11 25 10 36 -13 7 -14 12 -36 13 -48z m-460 -680 c0 -8 4 -12 9 -8 20 12
20 -15 1 -51 -12 -20 -20 -37 -18 -38 2 -1 15 -7 31 -14 23 -10 27 -16 22 -39
-6 -25 -5 -26 7 -11 11 13 24 15 56 11 43 -6 54 -19 25 -30 -18 -7 -53 -39
-53 -49 0 -3 7 -4 15 0 10 3 17 -3 21 -19 3 -14 10 -25 14 -25 4 0 11 -11 14
-25 4 -14 11 -25 16 -25 16 0 42 -61 36 -85 -3 -13 -2 -26 2 -29 5 -3 7 -19 4
-36 -2 -17 0 -30 6 -30 6 0 14 -9 17 -20 4 -11 11 -17 17 -14 6 4 8 2 4 -4 -3
-6 -2 -13 4 -17 15 -9 12 -45 -4 -45 -8 0 -23 18 -35 40 -11 21 -29 48 -39 58
-10 10 -29 40 -41 65 -13 26 -32 52 -42 58 -10 5 -19 17 -19 27 0 9 -23 52
-51 95 -50 76 -51 80 -52 155 -1 109 4 144 20 130 7 -6 13 -17 13 -25z m5335
-3811 c58 -39 72 -52 128 -113 26 -29 21 -41 -13 -24 -16 8 -43 15 -60 15 -37
0 -86 26 -94 49 -5 16 -26 51 -36 61 -48 48 -49 78 -2 57 15 -7 49 -27 77 -45z
m-4980 -1372 c0 -159 -2 -175 -18 -178 -20 -4 -287 146 -295 166 -2 8 2 20 9
27 32 32 266 165 284 163 19 -3 20 -11 20 -178z m1935 159 c89 -50 119 -171
63 -257 -71 -109 -235 -109 -306 0 -55 85 -28 202 59 254 51 31 131 33 184 3z
m2070 -159 l0 -160 -160 0 -160 0 0 160 0 160 160 0 160 0 0 -160z"/>
<path d="M1597 543 l-109 -65 109 -64 c59 -35 111 -64 116 -64 4 0 7 58 7 130
0 72 -3 130 -7 130 -5 -1 -57 -30 -116 -67z"/>
<path d="M3523 600 c-87 -52 -82 -199 7 -245 37 -19 103 -19 140 0 40 21 70
74 70 125 0 51 -30 104 -70 125 -41 21 -109 19 -147 -5z"/>
<path d="M5474 597 c-2 -7 -3 -65 -2 -128 l3 -114 125 0 125 0 0 125 0 125
-123 3 c-95 2 -124 0 -128 -11z"/>
<path d="M2015 11550 c-10 -11 -26 -22 -37 -26 -16 -5 -19 -11 -13 -32 3 -15
10 -55 14 -90 5 -35 13 -68 18 -73 12 -12 236 158 230 175 -2 6 -17 15 -33 19
-16 5 -56 17 -89 28 -73 23 -68 23 -90 -1z"/>
<path d="M1630 11406 l0 -73 68 -6 c37 -3 76 -7 87 -9 11 -2 20 2 19 10 -1 6
-2 44 -2 82 l-2 70 -85 0 -85 0 0 -74z"/>
<path d="M1561 11171 c-12 -16 -30 -33 -41 -36 -25 -8 -25 -26 0 -67 11 -18
22 -52 26 -76 4 -26 11 -42 19 -40 10 3 58 42 173 145 23 21 33 36 27 41 -6 5
-44 17 -85 27 -41 10 -80 22 -87 27 -7 6 -18 -1 -32 -21z"/>
<path d="M1218 11063 l-48 -4 0 -48 c0 -27 3 -63 6 -80 6 -30 9 -32 38 -25 29
7 98 8 128 2 13 -3 15 56 2 130 -5 35 -2 34 -126 25z"/>
<path d="M1823 10993 c-66 -50 -143 -125 -143 -139 0 -6 24 -14 59 -17 32 -4
71 -12 85 -19 24 -10 29 -9 54 19 16 16 35 32 43 35 12 4 12 10 0 39 -7 19
-19 53 -25 77 -6 23 -14 42 -18 42 -3 0 -28 -16 -55 -37z"/>
<path d="M1129 10733 c-5 -15 -20 -35 -31 -44 l-22 -17 31 -58 c17 -33 33 -71
37 -86 9 -39 28 -35 67 14 46 56 78 94 116 138 18 20 30 40 26 44 -3 3 -25 6
-47 6 -37 0 -101 12 -148 26 -13 4 -21 -3 -29 -23z"/>
<path d="M1775 10680 c-11 -5 -37 -6 -57 -3 -60 9 -67 2 -56 -54 5 -26 12 -58
14 -71 4 -21 9 -23 43 -17 21 3 58 1 81 -5 23 -6 44 -9 47 -6 3 3 0 29 -7 58
-24 110 -27 114 -65 98z"/>
<path d="M1399 10557 c-78 -87 -105 -125 -93 -136 5 -5 44 -11 86 -12 75 -3
77 -3 111 31 l35 34 -23 55 c-13 31 -26 64 -29 74 -9 29 -28 18 -87 -46z"/>
<path d="M875 10600 c-16 -4 -50 -8 -74 -9 -40 -1 -43 -3 -36 -23 4 -13 11
-51 17 -84 l10 -62 86 5 c92 6 112 13 94 36 -6 7 -17 43 -24 80 -13 71 -14 72
-73 57z"/>
<path d="M764 10241 c-4 -18 -15 -38 -25 -44 -26 -16 -24 -36 5 -66 14 -15 33
-48 43 -76 10 -27 25 -51 33 -52 18 -3 170 219 170 249 0 17 -4 19 -32 12 -40
-10 -78 -10 -140 1 l-48 8 -6 -32z"/>
<path d="M1355 10253 c-27 -2 -54 -8 -58 -12 -9 -9 19 -107 36 -129 7 -9 30
-11 86 -6 42 4 77 8 79 9 2 2 -20 71 -39 123 -6 15 -16 21 -31 20 -13 -1 -45
-3 -73 -5z"/>
<path d="M1088 10143 c-31 -37 -118 -181 -118 -196 0 -14 11 -17 64 -17 35 0
77 -3 94 -6 27 -6 31 -3 37 25 4 17 16 38 28 46 l21 15 -23 37 c-12 21 -30 55
-39 75 -18 41 -40 48 -64 21z"/>
<path d="M535 10078 c-11 -7 -41 -13 -68 -14 -26 0 -49 -3 -52 -6 -3 -3 4 -26
15 -52 11 -26 20 -61 20 -76 0 -38 9 -42 56 -25 21 8 58 14 81 15 23 0 45 4
48 10 3 5 -3 26 -15 47 -11 21 -26 55 -34 76 -16 40 -21 42 -51 25z"/>
<path d="M1317 9923 c-3 -10 -14 -30 -23 -44 -17 -26 -17 -28 7 -57 13 -17 30
-33 37 -36 17 -7 167 112 167 133 0 13 -15 16 -91 19 -81 2 -92 1 -97 -15z"/>
<path d="M1070 9773 c-91 -21 -94 -26 -60 -98 16 -33 29 -66 30 -74 0 -14 2
-14 108 16 34 10 62 22 62 28 0 5 -11 28 -25 50 -13 22 -25 47 -25 56 0 32
-22 37 -90 22z"/>
<path d="M636 9743 c-4 -4 -46 -10 -94 -13 -84 -5 -87 -6 -90 -30 -2 -14 -13
-35 -25 -48 l-20 -22 31 -38 c18 -20 46 -63 62 -94 17 -32 34 -58 40 -58 11 0
140 267 140 291 0 19 -29 26 -44 12z"/>
<path d="M792 9648 c-5 -7 -26 -49 -47 -93 -20 -44 -44 -95 -52 -112 -21 -44
-11 -67 25 -59 15 4 57 9 94 13 65 5 68 7 78 39 6 18 18 38 26 44 20 18 18 25
-20 67 -18 21 -41 55 -49 76 -16 38 -37 47 -55 25z"/>
<path d="M203 9496 c-34 -11 -64 -24 -68 -28 -7 -7 52 -135 65 -143 5 -3 24 2
44 10 19 8 54 15 76 15 22 0 40 4 40 9 0 6 -13 29 -28 53 -16 24 -34 58 -42
76 -7 17 -15 32 -19 31 -3 -1 -34 -11 -68 -23z"/>
<path d="M1088 9442 c-19 -5 -34 -20 -48 -47 -26 -51 -25 -56 8 -92 15 -16 36
-47 47 -69 22 -43 49 -55 63 -27 5 10 11 68 13 128 l4 110 -30 2 c-16 0 -42
-2 -57 -5z"/>
<path d="M790 9243 c-85 -22 -87 -27 -43 -113 21 -40 45 -77 54 -83 11 -7 30
-3 68 17 29 14 63 26 76 26 35 0 40 18 16 51 -12 16 -31 50 -41 74 -22 51 -34
54 -130 28z"/>
<path d="M397 9164 c-3 -4 -44 -9 -89 -13 -79 -6 -83 -7 -86 -31 -2 -14 -8
-35 -14 -47 -9 -19 -7 -25 21 -48 17 -15 47 -56 67 -92 31 -54 39 -62 50 -51
13 13 84 245 84 274 0 14 -21 19 -33 8z"/>
<path d="M552 9073 c-49 -134 -82 -232 -82 -240 0 -26 27 -33 63 -18 20 8 56
15 80 15 50 0 67 13 67 51 0 15 5 31 10 34 22 13 8 46 -40 94 -27 28 -50 57
-50 64 0 12 -20 27 -35 27 -1 0 -7 -12 -13 -27z"/>
<path d="M945 8924 c-33 -12 -66 -21 -73 -18 -21 7 -52 -15 -52 -37 0 -11 -5
-30 -11 -41 -10 -18 -5 -27 44 -72 30 -28 58 -61 61 -73 8 -25 43 -40 58 -25
6 6 16 32 24 59 7 26 23 83 35 125 32 116 23 125 -86 82z"/>
<path d="M23 8906 c-21 -10 -23 -17 -23 -103 0 -83 8 -111 24 -84 3 4 33 16
66 25 33 9 60 20 60 25 0 4 -14 29 -31 56 -17 27 -35 59 -40 72 -9 25 -21 27
-56 9z"/>
<path d="M640 8690 c-13 -11 -40 -27 -61 -37 -45 -20 -48 -34 -15 -70 13 -14
32 -43 42 -64 23 -53 45 -57 103 -20 26 17 55 31 64 31 29 0 27 18 -5 68 -18
28 -41 64 -50 81 -20 36 -45 39 -78 11z"/>
<path d="M195 8542 c-16 -9 -55 -19 -85 -22 l-55 -5 -5 -40 c-3 -22 -9 -46
-14 -53 -6 -10 10 -31 50 -70 33 -32 69 -70 81 -86 l22 -29 11 27 c5 15 10 37
10 49 0 12 9 62 20 111 31 141 27 153 -35 118z"/>
<path d="M377 8478 c-21 -132 -36 -217 -42 -239 -4 -18 -1 -30 10 -39 14 -12
22 -11 50 4 19 10 58 24 87 31 51 11 53 13 55 46 1 19 4 48 8 65 6 26 3 33
-27 53 -18 13 -48 43 -67 67 -41 53 -67 57 -74 12z"/>
<path d="M4820 8476 c0 -9 6 -16 13 -16 24 0 66 -50 88 -107 17 -45 22 -80 22
-153 1 -111 -18 -186 -62 -247 -23 -32 -26 -40 -12 -36 27 7 70 81 83 145 7
32 16 58 21 58 5 0 4 7 -3 15 -9 10 -9 15 -1 15 13 0 15 76 2 84 -4 3 -11 33
-14 66 -7 86 -58 167 -114 184 -17 6 -23 3 -23 -8z"/>
<path d="M5620 8410 c-12 -16 -24 -46 -27 -65 -5 -33 -1 -40 45 -85 28 -28 56
-50 62 -50 19 0 69 -82 80 -133 13 -57 2 -124 -25 -150 -24 -24 -3 -29 22 -5
51 48 50 162 -3 240 -29 43 -32 46 -69 70 -40 26 -95 89 -95 109 0 12 8 33 18
47 30 43 34 52 23 52 -5 0 -19 -13 -31 -30z"/>
<path d="M812 8373 c-30 -14 -71 -28 -93 -30 -33 -5 -40 -10 -44 -32 -3 -14
-10 -39 -15 -54 -12 -37 -5 -53 30 -67 16 -7 52 -36 79 -66 55 -59 76 -66 91
-31 8 18 29 148 43 261 1 10 -7 24 -18 31 -17 11 -28 9 -73 -12z"/>
<path d="M504 8091 c-27 -26 -58 -50 -67 -54 -27 -10 -20 -30 28 -77 25 -24
45 -50 45 -57 0 -11 37 -43 51 -43 3 0 26 16 50 35 24 19 51 35 60 35 9 0 23
7 30 16 11 14 10 19 -12 38 -15 13 -42 46 -62 75 -57 86 -64 88 -123 32z"/>
<path d="M110 7885 c-14 -8 -35 -14 -48 -15 -51 0 -62 -16 -62 -84 l0 -63 50
-27 c27 -15 57 -37 67 -49 36 -45 38 -39 40 109 3 154 2 157 -47 129z"/>
<path d="M309 7873 c-3 -23 3 -309 7 -312 2 -2 30 8 63 23 32 14 68 26 79 26
19 0 21 6 20 71 l0 70 -52 38 c-28 21 -62 50 -75 65 -24 26 -40 33 -42 19z"/>
<path d="M754 7798 c-16 -12 -32 -27 -36 -33 -4 -5 -31 -17 -60 -25 -47 -14
-53 -19 -56 -45 -2 -17 -11 -38 -19 -47 -14 -15 -13 -19 13 -42 16 -14 33 -26
38 -26 11 0 100 -92 102 -105 1 -5 2 -18 3 -28 0 -10 5 -16 11 -12 5 3 6 13 3
23 -6 15 -4 15 9 4 13 -10 22 -11 37 -2 18 9 21 20 21 73 0 34 3 105 6 157 6
83 4 98 -10 113 -22 22 -27 21 -62 -5z"/>
<path d="M482 7445 c-29 -29 -52 -59 -52 -66 0 -7 13 -27 29 -44 16 -16 38
-46 48 -65 28 -50 58 -51 106 -1 22 22 47 43 58 46 31 10 22 41 -24 76 -24 18
-54 48 -68 66 -13 18 -29 34 -35 37 -5 2 -34 -20 -62 -49z"/>
<path d="M751 7233 c-16 -33 -111 -132 -111 -116 0 3 -7 0 -15 -7 -10 -9 -13
-24 -8 -56 4 -29 1 -49 -7 -59 -11 -13 -11 -19 3 -32 9 -9 28 -17 42 -19 64
-7 98 -61 46 -74 -54 -13 -32 -48 34 -55 26 -2 58 -7 69 -11 15 -4 17 -3 8 4
-10 7 -5 11 18 16 l32 6 -7 112 c-4 62 -14 145 -21 183 -8 39 -16 79 -18 90
-12 65 -37 72 -65 18z"/>
<path d="M134 7229 c-3 -6 -27 -21 -51 -33 -88 -42 -83 -35 -83 -101 l0 -60
40 -19 c22 -11 64 -39 92 -64 51 -44 53 -44 56 -21 3 29 -14 230 -24 277 -6
33 -17 41 -30 21z"/>
<path d="M327 7213 c-5 -10 9 -245 18 -290 3 -18 10 -33 16 -33 5 0 27 13 50
29 22 16 54 33 71 36 28 7 30 9 22 39 -4 17 -7 49 -6 70 2 42 -6 52 -68 86
-19 10 -47 30 -62 44 -29 28 -34 30 -41 19z"/>
<path d="M562 6833 c1 -15 -25 -62 -67 -120 -7 -10 -2 -20 23 -39 18 -14 41
-43 52 -64 32 -63 79 -69 107 -12 10 20 33 46 50 57 42 26 39 51 -8 85 -20 14
-59 44 -88 68 -58 46 -70 51 -69 25z"/>
<path d="M214 6485 c-9 -14 -22 -25 -28 -25 -7 0 -22 -10 -34 -23 -21 -22 -21
-26 -9 -92 11 -65 14 -69 45 -77 17 -5 32 -13 32 -18 0 -6 5 -10 10 -10 6 0
28 -11 51 -25 l40 -26 -7 68 c-4 42 -13 78 -25 95 -10 15 -19 36 -19 47 0 31
-23 111 -32 111 -4 0 -15 -11 -24 -25z"/>
<path d="M414 6493 c3 -10 9 -36 15 -58 31 -135 61 -239 69 -247 7 -7 14 -3
22 11 6 12 36 38 66 57 30 19 54 37 54 40 0 2 -7 15 -16 28 -14 22 -21 53 -23
97 -1 16 -70 49 -104 49 -9 0 -17 4 -17 8 0 9 -44 32 -61 32 -6 0 -8 -8 -5
-17z"/>
<path d="M666 5758 c35 -55 130 -182 147 -197 11 -9 18 -3 32 29 10 22 22 40
27 40 15 0 8 29 -11 42 -10 7 -26 28 -35 46 -10 20 -24 32 -36 32 -11 0 -48
11 -82 25 -34 14 -63 25 -65 25 -2 0 9 -19 23 -42z"/>
<path d="M445 5752 l-38 -35 27 -20 c15 -11 31 -30 36 -42 6 -15 29 -28 87
-47 43 -14 80 -25 81 -23 5 5 -70 104 -105 139 -15 16 -27 31 -26 35 0 3 -4
11 -11 17 -9 9 -22 3 -51 -24z"/>
<path d="M0 4342 c0 -617 2 -1122 5 -1122 3 0 10 12 16 26 5 15 12 24 16 21 3
-3 14 4 24 16 10 12 18 17 19 10 0 -15 75 17 108 46 13 12 27 21 32 21 4 0 11
7 14 16 9 24 7 119 -3 130 -5 5 -14 43 -20 84 -12 85 -37 186 -52 213 -16 29
-1 55 38 66 20 6 40 8 44 5 4 -2 10 0 14 6 3 6 22 17 42 25 35 15 35 16 31 65
-3 27 -1 47 4 44 4 -3 8 7 9 23 l1 28 8 -25 8 -25 1 28 c1 15 5 27 9 27 4 0 7
12 6 28 -1 15 -2 37 -3 49 0 13 -4 22 -8 21 -10 -2 -98 53 -138 87 -16 14 -40
25 -54 25 -31 0 -88 39 -95 64 -3 11 2 28 10 37 13 15 13 17 0 22 -11 4 -13 1
-9 -10 5 -13 2 -15 -11 -10 -10 4 -21 7 -25 7 -4 0 -7 9 -7 20 0 15 5 19 21
15 66 -18 102 -31 113 -42 7 -7 24 -13 36 -13 13 0 43 -7 67 -16 24 -9 63 -20
87 -24 40 -6 42 -6 36 14 -8 27 -39 67 -102 133 -33 34 -52 63 -56 87 -6 30
-11 36 -32 36 -30 0 -44 29 -21 42 23 12 22 18 -15 95 -37 79 -43 157 -26 327
9 95 9 103 -16 165 -13 36 -32 89 -41 117 -10 31 -30 65 -51 85 l-34 33 0
-1122z"/>
<path d="M526 5425 c4 -16 0 -35 -11 -52 -11 -16 -14 -28 -8 -30 24 -8 103
-77 108 -94 7 -20 25 -26 25 -8 0 6 12 34 26 62 28 56 30 51 -37 92 -54 33
-93 54 -102 55 -4 0 -5 -11 -1 -25z"/>
<path d="M983 5101 c8 -61 75 -271 87 -271 6 0 10 6 10 14 0 8 16 37 35 66
l35 52 -25 42 c-14 24 -25 52 -25 63 0 15 -17 28 -61 50 l-62 31 6 -47z"/>
<path d="M840 5060 c-1 -28 -17 -42 -39 -35 -12 3 -18 11 -15 17 4 5 -5 2 -20
-7 -22 -15 -23 -19 -11 -31 7 -8 18 -14 24 -14 6 0 11 -4 11 -10 0 -5 -3 -10
-7 -10 -5 0 -6 -25 -5 -55 3 -40 8 -55 18 -55 8 0 37 -12 65 -26 28 -14 52
-24 54 -22 2 2 -3 38 -11 80 -14 72 -62 200 -64 168z"/>
<path d="M1275 4408 c4 -13 14 -30 21 -39 8 -8 14 -20 14 -26 0 -6 4 -13 8
-15 5 -1 38 -50 74 -107 36 -58 70 -107 76 -109 6 -2 14 14 17 35 4 21 15 60
25 86 21 52 18 72 -9 80 -11 2 -25 23 -33 48 -14 40 -18 44 -49 44 -19 0 -43
3 -54 7 -11 3 -37 9 -58 13 -37 6 -38 5 -32 -17z"/>
<path d="M1120 4341 c0 -29 -30 -103 -51 -125 -17 -18 -16 -20 22 -58 22 -22
39 -49 39 -61 0 -36 12 -42 85 -43 39 -1 83 -5 99 -9 l30 -8 -23 34 c-12 19
-27 45 -34 59 -7 14 -24 36 -38 50 -14 14 -32 40 -40 58 -8 18 -17 32 -21 32
-4 0 -17 18 -28 39 -24 47 -40 60 -40 32z"/>
<path d="M1904 3839 c-21 -7 -10 -14 31 -21 16 -3 21 -13 25 -51 3 -26 11 -52
18 -59 21 -21 13 -27 -19 -11 -16 8 -32 13 -34 12 -2 -2 -12 -26 -23 -54 -14
-36 -26 -51 -43 -56 -32 -7 -59 0 -59 17 0 8 -5 14 -10 14 -16 0 -23 -29 -11
-44 9 -10 8 -21 -3 -42 -8 -16 -28 -105 -46 -199 -17 -93 -37 -201 -45 -240
-8 -38 -19 -98 -25 -132 -6 -35 -19 -95 -29 -134 l-18 -72 -5 79 c-3 53 -12
92 -25 119 -32 61 -116 138 -210 190 -46 26 -88 56 -94 68 -11 20 -7 123 6
135 7 8 104 20 110 14 3 -3 5 -35 5 -71 0 -63 1 -67 42 -108 38 -39 47 -43 90
-43 74 0 88 20 88 123 0 101 -17 141 -91 218 -58 59 -131 94 -175 83 -39 -10
-28 -21 26 -27 28 -3 57 -13 66 -22 8 -8 20 -15 25 -15 5 0 21 -18 35 -40 24
-36 27 -50 28 -137 l1 -98 -44 -3 c-28 -2 -47 1 -52 10 -5 7 -9 46 -9 86 0 64
-3 76 -25 97 -21 21 -33 25 -89 25 -54 0 -70 -4 -93 -24 -26 -23 -28 -29 -28
-104 0 -64 4 -85 19 -101 10 -11 73 -51 139 -88 151 -86 170 -111 176 -225 7
-169 -17 -235 -104 -278 -38 -19 -68 -25 -124 -27 -72 -2 -90 -10 -91 -40 0
-30 161 -45 244 -22 22 6 60 31 87 56 27 25 49 41 49 34 0 -6 19 -32 41 -56
38 -41 46 -45 88 -45 72 0 81 11 106 141 l22 114 58 0 58 0 18 -92 c16 -83 21
-94 56 -127 33 -31 45 -35 89 -36 53 0 78 16 85 54 4 16 9 14 47 -18 l44 -36
142 0 c77 0 156 4 175 10 47 13 98 50 112 80 11 24 12 24 23 6 6 -11 28 -37
49 -58 31 -31 45 -38 78 -38 63 0 76 12 93 89 21 90 21 121 0 121 -10 0 -5 8
15 26 25 21 38 25 82 22 l53 -3 16 -88 c15 -78 21 -92 55 -127 36 -37 44 -40
91 -40 56 0 84 17 84 51 0 26 7 24 51 -16 39 -35 40 -35 134 -35 80 0 93 2 89
15 -4 8 -2 15 4 15 5 0 15 -7 22 -15 35 -42 176 4 223 73 44 64 49 105 45 442
-3 283 -5 318 -21 349 -31 56 -99 123 -152 147 -45 22 -64 24 -196 24 -130 0
-150 -2 -170 -19 l-24 -19 -5 -444 -5 -443 -19 90 c-20 95 -28 136 -70 355
-81 425 -71 389 -118 437 -35 36 -48 43 -81 43 -51 0 -124 -19 -138 -36 -10
-12 -74 -318 -114 -544 -26 -146 -37 -192 -43 -185 -4 3 -9 40 -13 80 -4 58
-12 83 -33 114 l-27 39 28 53 c25 49 28 63 28 154 -1 121 -19 169 -91 240 -79
76 -105 85 -276 85 -135 0 -150 -2 -168 -20 -19 -19 -20 -34 -21 -462 -1 -500
0 -496 -64 -158 -20 107 -40 213 -45 235 -5 22 -21 103 -35 180 -24 126 -29
143 -60 176 l-33 37 15 49 c9 26 22 60 29 75 22 41 17 74 -16 111 -32 36 -63
48 -96 36z m46 -299 c9 -5 22 -56 37 -137 20 -117 37 -206 94 -488 58 -293 58
-315 -1 -315 -32 0 -56 24 -63 65 -3 17 -12 68 -21 115 -9 47 -16 86 -16 88 0
1 -47 2 -104 2 l-104 0 -17 -97 c-9 -54 -21 -113 -27 -130 -9 -31 -12 -33 -55
-33 l-45 0 5 48 c9 79 92 526 101 541 2 3 16 74 31 156 38 206 31 195 107 195
35 0 70 -4 78 -10z m652 -25 c62 -43 81 -90 82 -194 1 -114 -8 -150 -47 -194
l-34 -36 30 -21 c46 -34 57 -75 57 -204 0 -125 -8 -157 -48 -199 -49 -52 -84
-61 -234 -61 -98 0 -140 4 -152 13 -14 12 -16 63 -16 460 0 344 3 450 13 460
9 9 49 12 159 9 144 -3 147 -3 190 -33z m518 13 c9 -23 53 -245 65 -328 4 -25
13 -72 20 -105 20 -83 72 -359 80 -422 7 -51 6 -53 -20 -63 -47 -18 -78 6 -87
65 -4 28 -15 83 -24 123 l-16 72 -103 0 -103 0 -5 -32 c-4 -18 -11 -71 -18
-118 -13 -94 -28 -120 -70 -120 -40 0 -60 24 -49 58 5 15 16 70 25 122 9 52
30 160 46 240 17 80 39 192 50 250 39 211 49 261 54 271 4 5 38 9 76 9 63 0
70 -2 79 -22z m638 -4 c43 -21 55 -34 77 -79 l25 -54 0 -315 c0 -299 -1 -319
-21 -360 -11 -24 -28 -51 -38 -60 -35 -32 -105 -48 -228 -53 -102 -5 -127 -3
-147 10 l-25 17 -1 453 c0 249 3 456 6 460 4 4 73 7 154 7 137 0 149 -2 198
-26z"/>
<path d="M1857 3323 c-9 -48 -21 -119 -26 -158 -6 -38 -15 -86 -21 -105 -5
-19 -10 -50 -10 -67 l0 -33 80 0 c44 0 80 3 80 8 0 4 -9 59 -21 122 -11 63
-28 159 -37 212 -10 53 -20 99 -23 103 -4 3 -14 -34 -22 -82z"/>
<path d="M2350 3295 l0 -155 86 0 c84 0 87 1 116 32 29 32 30 33 26 131 -3 94
-4 100 -31 123 -25 21 -38 24 -113 24 l-84 0 0 -155z m200 4 c0 -102 -17 -129
-82 -129 l-38 0 0 100 0 100 60 0 60 0 0 -71z"/>
<path d="M2350 2901 c0 -83 4 -142 10 -146 6 -3 7 -17 4 -31 -6 -24 -5 -24 65
-24 86 0 137 19 151 55 14 36 13 201 -1 228 -24 47 -49 57 -141 57 l-88 0 0
-139z m208 -21 c5 -122 -11 -150 -84 -150 l-44 0 0 115 0 116 63 -3 62 -3 3
-75z"/>
<path d="M3000 3232 c-18 -97 -35 -198 -38 -224 l-4 -48 81 0 c66 0 81 3 81
15 0 9 -12 77 -26 153 -14 75 -31 167 -37 204 -7 37 -15 69 -18 72 -3 3 -20
-74 -39 -172z"/>
<path d="M3510 3075 l0 -375 79 0 c96 0 136 13 150 49 8 19 11 124 9 345 l-3
318 -24 19 c-19 16 -40 19 -117 19 l-94 0 0 -375z m210 -4 c0 -285 -1 -298
-20 -319 -15 -16 -32 -22 -65 -22 l-45 0 0 323 0 322 65 -3 65 -4 0 -297z"/>
<path d="M1207 3565 c-49 -18 -84 -47 -116 -93 -22 -32 -26 -50 -29 -139 -5
-124 5 -156 66 -221 53 -56 109 -95 200 -141 l62 -31 0 -85 c0 -97 -16 -125
-70 -125 -16 0 -30 -5 -30 -10 0 -34 91 -13 116 26 23 34 23 173 1 207 -22 35
-68 67 -157 113 -131 67 -160 113 -162 262 -1 93 17 138 71 183 20 16 53 32
74 36 22 3 37 11 37 19 0 17 -14 17 -63 -1z"/>
<path d="M4105 3560 c-54 -25 -67 -37 -101 -90 l-29 -45 0 -341 0 -340 24 -48
c32 -61 116 -138 168 -154 63 -19 201 -15 248 7 50 23 89 64 111 116 15 33 17
67 16 195 -1 85 -7 188 -13 227 -9 54 -9 76 0 86 15 19 17 151 2 202 -20 76
-117 175 -189 195 -63 17 -192 12 -237 -10z m272 -43 c82 -52 83 -60 83 -437
0 -305 -1 -334 -19 -368 -37 -72 -95 -102 -198 -102 -85 0 -134 13 -173 47
-58 48 -60 63 -60 421 0 307 1 328 20 368 20 40 74 86 116 97 10 3 57 5 104 4
74 -2 91 -6 127 -30z"/>
<path d="M4139 3424 l-24 -26 -3 -308 c-3 -349 -2 -359 64 -380 52 -17 134 -6
156 20 27 33 29 66 26 378 l-3 294 -28 24 c-24 20 -39 24 -96 24 -60 0 -70 -3
-92 -26z m186 -357 l0 -299 -24 -19 c-17 -14 -36 -19 -65 -17 l-41 3 0 308 c0
348 -5 329 80 325 l50 -3 0 -298z"/>
<path d="M1064 2969 c-16 -18 -19 -36 -18 -113 0 -50 6 -109 12 -131 16 -52
55 -100 76 -92 13 5 11 11 -13 37 -38 42 -51 91 -51 188 0 88 9 102 62 102 39
0 48 -18 48 -97 0 -86 19 -143 48 -143 24 0 32 25 32 103 0 68 -17 106 -63
141 -44 33 -105 35 -133 5z"/>
<path d="M1962 2218 c53 -51 133 -124 178 -163 45 -38 92 -79 104 -90 13 -11
43 -36 67 -55 24 -19 64 -53 90 -75 81 -70 142 -120 165 -135 12 -8 48 -35 80
-60 32 -25 68 -52 80 -60 12 -8 46 -33 75 -56 30 -22 105 -75 167 -117 125
-84 131 -83 91 23 -33 89 -69 151 -118 207 -35 39 -57 80 -93 171 -25 65 -49
141 -53 168 -5 40 -57 272 -71 322 -3 9 -97 12 -430 12 l-427 0 95 -92z"/>
<path d="M3070 2020 c0 -41 24 -207 31 -216 5 -6 20 -9 33 -7 12 3 39 0 60 -5
41 -12 47 -1 22 46 -7 15 -24 59 -37 99 -19 61 -26 72 -48 76 -14 2 -34 8 -43
12 -12 4 -18 3 -18 -5z"/>
<path d="M3360 1946 c0 -2 7 -19 14 -38 8 -19 20 -72 25 -117 6 -45 13 -86 16
-91 3 -5 19 -11 35 -15 17 -4 45 -24 64 -47 l35 -41 41 39 c46 44 63 52 103
53 16 1 27 7 27 15 0 12 -92 76 -110 76 -5 0 -17 11 -26 25 -9 14 -22 25 -30
25 -7 0 -21 11 -30 25 -9 14 -22 25 -28 25 -7 0 -38 16 -70 35 -58 35 -66 39
-66 31z"/>
<path d="M4080 1485 c0 -3 6 -16 14 -28 15 -23 53 -144 65 -207 5 -31 10 -35
40 -38 37 -4 78 -26 99 -54 19 -27 29 -22 57 25 17 30 41 53 77 72 l51 28 -23
19 c-12 10 -34 21 -49 25 -14 3 -47 19 -72 34 -25 16 -72 40 -105 55 -32 15
-76 38 -96 51 -36 22 -58 29 -58 18z"/>
<path d="M3835 1461 c-16 -8 -54 -18 -83 -22 -63 -9 -71 -14 -54 -37 27 -39
92 -173 92 -191 0 -28 18 -36 39 -17 21 19 95 46 127 46 13 0 24 2 24 4 0 3
-15 31 -34 63 -19 32 -37 74 -41 93 -3 20 -14 45 -23 56 -16 19 -19 20 -47 5z"/>
</g>
</svg>
